<?xml version="1.0" encoding="UTF-8"?>
<svg id="Layer_2" data-name="Layer 2" xmlns="http://www.w3.org/2000/svg" viewBox="0 0 420.13 704.22">
  <defs>
    <style>
      .cls-1 {
        fill: #ffddc0;
      }

      .cls-1, .cls-2, .cls-3, .cls-4, .cls-5 {
        fill-rule: evenodd;
      }

      .cls-2 {
        fill: #fba89f;
      }

      .cls-3 {
        fill: #fff;
      }

      .cls-4 {
        fill: #d1ffe6;
      }
    </style>
  </defs>
  <g id="_Layer_" data-name="&amp;lt;Layer&amp;gt;">
    <g>
      <path class="cls-2" d="M121.4,43.14S163.09-7.84,207.78,5.3c6.42,1.89,14.22,7.27,20.57,9.62,14.12,5.22,25.4,6.08,37.14,15.02,15.37,11.69,27.13,34.52,33.5,49.03,15.93,36.23,10.61,60.24,10.61,60.24,0,0-1.66,16.96,2.8,24.98,5.67,10.18,18.11,13.24,22.36,28.94,3.36,12.41-3.06,41.53,.28,56.63,3.85,17.41,18.26,24.32,23.28,34.9,5.85,12.3,2.08,26.86,2.08,26.86l-311.61,7.44s-7.17-7.32-.07-29.21c3.09-9.51,19.22-22.19,22.54-37.5,2.47-11.37-3.03-47.72,.29-59.74,1.62-5.87,23.29-24.84,24.75-30.53,3.48-13.57-4.59-39.16-.79-57.39,6.97-33.42,25.88-61.44,25.88-61.44Z"/>
      <path class="cls-1" d="M290.73,138.57c7.41,28.82-16.4,35.75-16.4,35.75,0,0-1.2,11.76-5.82,22.81-4.62,11.05-12.65,21.38-12.65,21.38,0,0-.76,31,4.94,44.79,5.16,12.5,25.64,22.71,25.64,22.71,0,0-38.01,49.32-75.89,49.45-37.88,.13-75.62-48.92-75.62-48.92,0,0,25.79-11.73,29.08-19.7,6.48-15.69,1.81-40.77,1.81-40.77,0,0-8.98-10.91-14.47-20.16-5.49-9.26-7.47-16.87-7.47-16.87,0,0-20.59,2.03-25.32-23.33-.79-4.23,1.06-11.19,6.56-14.71,5.01-3.2,13.45-2.75,17.87-10.46,4.67-8.12,4.48-22.16,8.37-33.6,3.42-10.07,10.61-17.76,18.79-22.69,13.62-8.21,47.11-10.37,64.8-3.05,8.75,3.62,11.28,8.91,14.96,17.27,4.37,9.95,9.38,23.31,14.64,30.44,3.74,5.08,9.86,3.47,15.86,4.22,4.71,.59,9.86,3.7,10.31,5.45Z"/>
      <path class="cls-1" d="M13.79,430.42l96.33-6.74-30.15,134.13-12.5,138.64s-14.18-.16-30.18-1.65c-16-1.49-33.81-4.29-33.81-4.29,0,0-.91-20.28,.93-54.07,1.94-35.64,6.68-85.7,8-119.08,2.58-65.02,1.38-86.93,1.38-86.93Z"/>
      <path class="cls-1" d="M314.16,472.88l35.69-36.7,55.63-11.77s.27,53.81,3.32,120.44c1.46,31.74,4.57,67.25,6.34,94.83,1.96,30.31,2.52,51.23,2.52,51.23,0,0-14.09,2.35-30.5,4.16-16.4,1.82-35.11,3.1-35.11,3.1l-11.67-139.44-26.22-85.83Z"/>
      <path class="cls-3" d="M21.69,352.61c4.62-22.27,31.49-37.33,59.31-47.96,28.99-11.08,53.94-19.14,53.94-19.14,0,0,9.39,10.01,25.14,19.32,14.79,8.74,35.38,16.8,53.83,16.78,17.4-.02,34.89-4.9,48.04-13.13,15.63-9.78,25.39-23.18,25.39-23.18,0,0,21.77,6.8,44.98,15.37,19.51,7.2,39.67,14.93,52.45,28.15,19.42,20.1,20.83,93.58,20.83,93.58,0,0-13.26,9.74-27.1,13.61-13.84,3.87-28.26,1.89-28.26,1.89,0,0,5.3,30.53,1.89,48.45-4.86,25.6-12.61,55.21-12.61,55.21,0,0-2.17,43.4-2.42,82.8-.24,39.4,1.45,74.8,1.45,74.8-34.65,2.71-77.61,5.07-121.86,5.07-47.07,0-96.59-3.05-135.51-5.96,0,0,2.34-45.73,1.98-81.8-.36-36.07-3.43-62.49-3.43-62.49,0,0-1.06-24.01-9.97-56.36-7.64-27.72-.2-58.23-.2-58.23,0,0-7.56,4.23-21.47,1.33-13.91-2.91-34.16-12.96-34.16-12.96,0,0,2.16-48.09,7.77-75.15Z"/>
      <path class="cls-3" d="M142.76,48.08c9.18-8.35,25.86-18.42,46.67-21.49,20.97-3.1,46.08,.88,62.47,14.46,12.87,10.66,24.18,31.92,29.36,49.99,6.66,23.25,5.2,42.67,5.2,42.67l-5.46-2.25s-4.4-41.98-25.69-65.21c-18.69-20.4-49.48-21.23-66.92-19.26-17.24,1.95-44.16,15.77-54.62,37.86-13.01,27.47-7.51,64.08-7.51,64.08l-5.82,4.45s-6.04-16.58-5.02-38.36c1.06-22.6,9.49-50.7,27.34-66.94Z"/>
      <path class="cls-4" d="M199.48,86.47c-11.42,.63-36.61,8.96-43.7,21.85-11.15,20.27-13.35,47.92-6.28,74.83,7.84,29.87,29.29,50.98,58.69,50.98s51.79-25.41,56.56-52.7c4.77-27.29-1.94-60.47-17.57-80.69-10.49-13.57-30.33-15.24-47.7-14.28Zm29.54,40.88c21.45-7.99,26.5,22.69,10.31,30.84-16.18,8.14-29.97-23.52-10.31-30.84Zm-55.43,4.5c19.59,1.29,16.35,36.56-3.13,32.27-17.1-3.77-20.64-33.83,3.13-32.27Zm65.06,59.13c10.46,23.89-56.47,29.73-59.12,10.39-2.01-14.66,16.37-7.53,30.18-8.51,13.35-.95,24.35-12.39,28.94-1.88Z"/>
      <path d="M80.99,700.9s-.1,0-.14,0c-1.64-.08-2.91-1.47-2.83-3.11,2.53-53.35,2.64-107.02,.27-140.04-1.52-21.26-5.85-38.04-9.33-51.53-2.24-8.68-4.17-16.17-4.78-22.68-1.44-15.35,.51-30.78,2.39-45.7,2.06-16.33,4.19-33.21,1.82-49.84-.23-1.62,.9-3.13,2.52-3.36,1.63-.22,3.13,.9,3.36,2.52,2.49,17.42,.31,34.71-1.81,51.43-1.84,14.6-3.75,29.7-2.37,44.4,.56,6.04,2.44,13.32,4.62,21.75,3.54,13.71,7.94,30.79,9.5,52.59,2.38,33.24,2.27,87.17-.27,140.75-.08,1.59-1.39,2.83-2.97,2.83Z"/>
      <path d="M338.88,701.59c-1.58,0-2.89-1.24-2.96-2.83-2.61-55.01-2.81-109-.53-140.92,1.56-21.81,5.96-38.88,9.51-52.6,2.17-8.43,4.05-15.7,4.61-21.73,1.37-14.7-.53-29.79-2.37-44.39-2.11-16.72-4.29-34.01-1.8-51.43,.23-1.62,1.73-2.72,3.36-2.52,1.62,.23,2.75,1.74,2.52,3.36-2.37,16.64-.25,33.52,1.82,49.85,1.88,14.92,3.83,30.34,2.4,45.69-.61,6.51-2.54,14-4.78,22.67-3.48,13.48-7.81,30.27-9.33,51.54-2.27,31.7-2.06,85.42,.54,140.21,.08,1.64-1.19,3.03-2.82,3.11-.05,0-.1,0-.15,0Z"/>
      <path d="M2.97,693.86c-1.64,0-2.97-1.33-2.97-2.97,0-27.47,1.58-48.41,3.59-74.92,1.96-25.99,4.41-58.33,6.19-108.26,.54-15.12,.7-30.71,.85-45.78,.4-39.84,.78-77.48,7.67-107.84,7.93-34.95,46.36-47.57,83.52-59.78,21.09-6.93,41.02-13.47,54.88-23.72,7.02-5.19,9.33-20.86,6.49-44.12-.2-1.63,.96-3.11,2.59-3.31,1.59-.2,3.11,.96,3.31,2.59,3.2,26.21,.22,42.91-8.86,49.61-14.63,10.81-35,17.5-56.56,24.59-35.59,11.69-72.39,23.78-79.58,55.45-6.75,29.75-7.13,67.07-7.53,106.59-.15,15.11-.31,30.74-.85,45.94-1.79,50.04-4.23,82.45-6.21,108.5-1.99,26.38-3.57,47.22-3.57,74.47,0,1.64-1.33,2.97-2.97,2.97Z"/>
      <path d="M66.81,699.75c-.14,0-.28-.01-.43-.03-1.62-.24-2.75-1.74-2.52-3.37,3.84-26.7,10.92-117.63,13-152.96,.1-1.64,1.55-2.89,3.14-2.79,1.64,.09,2.89,1.5,2.79,3.14-2.08,35.41-9.19,126.62-13.05,153.46-.21,1.48-1.48,2.55-2.94,2.55Z"/>
      <path d="M417.16,694.56c-1.64,0-2.97-1.33-2.97-2.97,0-27.28-1.59-48.48-3.61-75.33-1.99-26.36-4.45-59.16-6.24-109.14-.5-13.83-.61-27.95-.72-41.61-.33-41.07-.65-79.87-10.21-115.29-7.66-28.42-38.87-38.72-71.9-49.64-19.85-6.55-40.37-13.33-55.45-24.47-10.98-8.11-13.23-28.78-13.23-57.3,0-1.64,1.33-2.97,2.97-2.97s2.97,1.33,2.97,2.97c0,22.02,1.29,45.48,10.82,52.53,14.31,10.58,34.38,17.2,53.78,23.61,33.07,10.92,67.28,22.22,75.78,53.73,9.75,36.15,10.09,77.14,10.41,116.78,.11,13.62,.22,27.69,.71,41.44,1.78,49.86,4.25,82.6,6.23,108.91,2.03,26.97,3.64,48.27,3.64,75.78,0,1.64-1.33,2.97-2.97,2.97Z"/>
      <path d="M352.35,700c-1.45,0-2.72-1.07-2.94-2.55-3.83-26.59-9.97-117.7-12.18-155.18-.1-1.64,1.15-3.04,2.79-3.14,1.5-.13,3.04,1.15,3.14,2.79,2.21,37.4,8.33,128.27,12.13,154.68,.23,1.62-.89,3.13-2.52,3.36-.14,.02-.29,.03-.43,.03Z"/>
      <path d="M57.88,444.08c-15.13,0-34.56-7.58-44.33-14.91-1.31-.98-1.58-2.84-.59-4.15,.98-1.32,2.84-1.58,4.16-.59,11.39,8.55,38.09,17.56,50.22,12.06,1.5-.69,3.26-.02,3.93,1.48,.68,1.49,.02,3.25-1.47,3.93-3.36,1.53-7.45,2.19-11.92,2.19Z"/>
      <path d="M361.52,441.07c-4.47,0-8.56-.66-11.92-2.19-1.49-.68-2.16-2.44-1.48-3.93,.69-1.5,2.45-2.15,3.93-1.48,12.15,5.51,38.83-3.51,50.23-12.06,1.3-.99,3.18-.72,4.15,.59,.99,1.31,.72,3.17-.59,4.15-9.76,7.33-29.2,14.91-44.33,14.91Z"/>
      <path d="M215.21,324.17c-34.66,0-66.14-18.15-80.93-35.27-1.07-1.24-.93-3.12,.31-4.19,1.24-1.07,3.12-.93,4.19,.31,13.92,16.12,43.63,33.21,76.41,33.21,.51,0,1.01,0,1.52-.01,26.23-.42,49.53-12.31,67.38-34.39,1.04-1.27,2.9-1.47,4.18-.44,1.27,1.04,1.47,2.91,.44,4.18-18.99,23.48-43.86,36.14-71.91,36.59-.53,0-1.07,.01-1.6,.01Z"/>
      <path d="M213.85,247.86c-3.83,0-17.39-.79-36.47-10.72-15.34-7.98-21.51-17.65-25.19-23.43-5.77-9.04-10.21-20.89-13.79-31.29-.54-1.55,.29-3.24,1.84-3.78,1.55-.54,3.24,.29,3.78,1.84,3.47,10.07,7.76,21.51,13.19,30.03,3.58,5.62,9,14.11,22.93,21.36,20.59,10.72,34.3,10.03,34.42,10.04,1.75-.09,3.05,1.15,3.15,2.78,.1,1.63-1.13,3.04-2.76,3.15-.09,0-.46,.03-1.08,.03Z"/>
      <path d="M215.16,247.8c-1.52,0-2.82-1.16-2.95-2.7-.15-1.63,1.05-3.07,2.67-3.23,.23-.02,11.85-1.44,29.51-16.06,12.29-10.19,17.23-21.04,19.88-26.86,5.88-12.93,6.77-31.94,6.78-32.13,.07-1.63,1.29-2.92,3.1-2.84,1.64,.07,2.91,1.46,2.84,3.09-.04,.83-.94,20.35-7.31,34.34-2.65,5.82-8.16,17.92-21.5,28.98-19.36,16.02-32.21,17.35-32.75,17.4-.09,0-.18,.01-.27,.01Z"/>
      <path d="M208.46,183.53c-.62,0-1.25-.19-1.78-.59-1.31-.98-1.58-2.85-.6-4.16,2.93-3.91,2.94-5.35,2.88-5.7-.1-.57-1.36-1.37-2.58-2.14-2.27-1.44-5.39-3.42-6.88-7.4-3.13-8.36,.91-21.92,2.57-26.01,.62-1.52,2.35-2.25,3.87-1.63,1.52,.62,2.25,2.35,1.63,3.87-1.48,3.64-4.82,15.54-2.51,21.69,.79,2.11,2.59,3.26,4.5,4.46,2.18,1.39,4.67,2.96,5.24,6.09,.51,2.8-.71,5.98-3.97,10.33-.58,.78-1.48,1.19-2.38,1.19Z"/>
      <path d="M158.01,123.14c-.81,0-1.6-.32-2.19-.96-1.1-1.2-1.04-3.06,.16-4.17,.37-.35,9.33-8.48,23.3-4.09,1.56,.49,2.43,2.16,1.94,3.72-.49,1.56-2.15,2.44-3.72,1.94-10.57-3.32-17.22,2.54-17.49,2.79-.57,.52-1.29,.77-2,.77Z"/>
      <path d="M220.48,115.21c-1.01,0-2-.51-2.55-1.44-.84-1.41-.39-3.23,1.02-4.07,12.54-7.54,23.17-1.73,23.61-1.47,1.43,.81,1.93,2.62,1.13,4.05-.8,1.43-2.59,1.94-4.03,1.14-.39-.21-8.19-4.29-17.65,1.38-.48,.29-1,.42-1.52,.42Z"/>
      <path class="cls-5" d="M166.48,227s22.96,17.46,43.89,17.95c15.86,.37,40.69-19.01,40.69-19.01,0,0-25.19,30.21-45.98,33.6-18.04,2.94-37.37-14.42-37.37-14.42l-1.22-18.12Z"/>
      <path d="M361.41,314.98c-.12,0-.25,0-.37-.02-1.63-.21-2.78-1.69-2.58-3.32,2.82-22.77-4.97-30.65-13.21-38.99-4.88-4.94-9.93-10.05-12.62-18.12-3.72-11.17-2.23-22.23-.79-32.93,1.32-9.73,2.55-18.91-.29-27.28-3.03-8.9-8.01-13.42-12.83-17.8-7.63-6.93-14.84-13.47-11.81-33.72,4.5-30.17-10.24-60.97-15.79-72.57-16.34-34.12-34.85-49.35-58.22-48.3-1.62,.14-3.03-1.19-3.1-2.83-.07-1.64,1.2-3.03,2.83-3.1,26.09-1.16,46.35,15.13,63.67,51.31,5.94,12.41,21.26,44.4,16.49,76.37-2.55,17.11,2.96,22.11,9.93,28.44,5.13,4.65,10.94,9.93,14.46,20.29,3.29,9.69,1.9,20,.56,29.98-1.35,10.02-2.75,20.4,.53,30.26,2.26,6.76,6.61,11.17,11.21,15.83,8.47,8.56,18.06,18.28,14.89,43.9-.19,1.5-1.47,2.61-2.95,2.61Z"/>
      <path d="M274.36,176.66c-1.23,0-2.38-.77-2.81-2-.54-1.55,.29-3.24,1.83-3.78,9.84-3.41,15.07-9.4,16.46-18.87,.98-6.68-1.03-12.59-5.23-15.42-4.03-2.72-9.61-2.25-15.7,1.34-1.42,.83-3.24,.36-4.07-1.05-.83-1.41-.36-3.23,1.05-4.07,8.06-4.74,16.08-5.15,22.03-1.15,6.12,4.12,9.11,12.25,7.8,21.22-1.73,11.74-8.4,19.46-20.4,23.62-.32,.11-.65,.16-.97,.16Z"/>
      <path d="M276.79,157.25c-.41,0-.82-.08-1.21-.26-1.49-.67-2.16-2.42-1.5-3.91,.08-.17,1.86-4.12,5.22-7.11,1.23-1.09,3.1-.98,4.2,.25,1.09,1.23,.98,3.11-.25,4.2-2.38,2.11-3.73,5.06-3.74,5.09-.5,1.1-1.58,1.75-2.71,1.75Z"/>
      <path class="cls-5" d="M166.79,148.96c-.45-4.25,1.9-7.97,5.24-8.33,3.34-.36,6.42,2.8,6.87,7.04,.45,4.25-1.9,7.98-5.24,8.33-3.34,.36-6.42-2.8-6.87-7.04Z"/>
      <path class="cls-5" d="M228.33,142.41c-.45-4.24,1.89-7.97,5.23-8.33,3.34-.35,6.41,2.8,6.87,7.04,.45,4.24-1.89,7.97-5.24,8.33-3.34,.36-6.41-2.8-6.86-7.04Z"/>
      <path d="M142.5,191.88c-.12,0-.24,0-.37-.02-12.61-1.54-20.75-7.69-24.9-18.8-3.17-8.49-1.96-17.07,3.16-22.38,4.98-5.17,12.92-6.44,21.78-3.51,1.56,.52,2.4,2.2,1.89,3.76-.52,1.56-2.2,2.41-3.76,1.89-6.71-2.23-12.25-1.52-15.64,1.99-3.52,3.65-4.23,9.85-1.87,16.18,3.34,8.96,9.72,13.72,20.05,14.99,1.63,.2,2.79,1.68,2.59,3.31-.18,1.51-1.46,2.61-2.94,2.61Z"/>
      <path d="M136.04,173.42c-.92,0-1.82-.42-2.4-1.22-.01-.02-1.96-2.62-4.72-4.18-1.43-.81-1.94-2.62-1.13-4.05,.81-1.43,2.62-1.94,4.05-1.13,3.92,2.21,6.5,5.7,6.6,5.85,.97,1.33,.68,3.18-.65,4.15-.53,.39-1.14,.57-1.75,.57Z"/>
      <path d="M206.16,205.75c-7.36,0-14.01-1.54-18.4-3.69-1.48-.72-2.08-2.5-1.36-3.97,.72-1.47,2.5-2.09,3.97-1.36,8.24,4.04,25.7,5.54,38.77-3.7,1.33-.95,3.2-.62,4.14,.71,.95,1.34,.63,3.19-.71,4.14-8.13,5.75-17.76,7.87-26.41,7.87Z"/>
      <path d="M139.76,143.56c-1.11,0-2.18-.63-2.69-1.7-.7-1.48-.07-3.25,1.41-3.96,4.17-1.98,5.69-10.74,7.15-19.21,2.18-12.63,4.65-26.94,16.85-30.1,1.58-.43,3.21,.54,3.62,2.13,.41,1.59-.54,3.21-2.13,3.62-8.48,2.19-10.51,13.97-12.48,25.36-1.8,10.43-3.5,20.27-10.46,23.57-.41,.19-.84,.29-1.27,.29Z"/>
      <path d="M171.84,87.2c-.78,0-1.56-.3-2.14-.91-.04-.05-4.67-4.79-10.18-5.71-1.62-.27-2.71-1.8-2.44-3.42,.27-1.62,1.8-2.71,3.42-2.44,7.5,1.25,13.26,7.21,13.5,7.46,1.13,1.19,1.09,3.06-.1,4.19-.57,.55-1.31,.82-2.05,.82Z"/>
      <path d="M210.21,80.85c-.13,0-.27,0-.4-.03-1.63-.22-2.77-1.72-2.55-3.34,.05-.4,1.45-9.92,11.77-13.79,1.53-.58,3.25,.2,3.82,1.74,.58,1.54-.2,3.25-1.74,3.82-7.03,2.64-7.96,8.96-7.97,9.02-.21,1.49-1.48,2.57-2.94,2.57Z"/>
      <path d="M263.93,128.28c-.54,0-1.08-.15-1.57-.45-5.87-3.66-8.71-11.35-11.72-19.49-4.62-12.51-9.4-25.46-25.3-25.46-1.64,0-2.97-1.33-2.97-2.97s1.33-2.97,2.97-2.97c20.03,0,26.05,16.27,30.87,29.34,2.64,7.16,5.14,13.92,9.29,16.5,1.39,.87,1.82,2.7,.95,4.09-.56,.9-1.53,1.4-2.53,1.4Z"/>
      <path d="M126.01,151.01c-1.43,0-2.68-1.03-2.93-2.48-1.26-7.57-6.51-46.78,14.31-75.56,11.7-16.17,29.48-26.2,52.87-29.81,24.01-3.7,44.32,1.33,60.4,14.94,26.43,22.39,32.78,60.38,32.92,71.92,.02,1.64-1.29,2.99-2.94,3.01-1.79-.15-2.99-1.29-3.01-2.93-.11-8.83-5.65-46.14-30.82-67.46-14.71-12.45-33.41-17.03-55.65-13.6-21.76,3.36-38.23,12.58-48.96,27.41-19.43,26.86-14.46,63.94-13.26,71.1,.27,1.62-.82,3.15-2.44,3.42-.17,.03-.33,.04-.49,.04Z"/>
      <path d="M120.48,154.96c-1.16,0-2.26-.68-2.74-1.81-8.48-19.95-8.69-56.97,7.62-86.27,13.49-24.24,36.03-39.44,65.16-43.93,25.82-3.97,47.84,2.27,65.47,18.58,25.07,23.19,36.07,63.33,33.99,90.99-.13,1.64-1.61,2.86-3.19,2.74-1.64-.12-2.86-1.55-2.74-3.18,1.6-21.23-5.63-61.7-32.1-86.19-16.24-15.02-36.6-20.77-60.53-17.07-27.25,4.2-48.31,18.36-60.88,40.95-15.39,27.66-15.27,62.4-7.34,81.06,.64,1.51-.06,3.26-1.57,3.9-.38,.16-.77,.24-1.16,.24Z"/>
      <path d="M48.02,320.76c-1.3,0-2.5-.87-2.86-2.19-6.35-23.13,3.43-35.79,12.06-46.96,4.38-5.67,8.52-11.03,10.68-17.51,3.29-9.86,1.89-20.23,.53-30.26-1.35-9.98-2.74-20.3,.56-29.98,3.52-10.35,9.33-15.63,14.46-20.29,6.98-6.33,12.49-11.34,9.93-28.45-4.25-28.46,.42-58,13.17-83.17C122.08,31.28,156.32,4.91,186.2,.62c15.8-2.27,28.98,1.7,38.16,11.48,1.12,1.2,1.07,3.07-.13,4.2-1.21,1.13-3.08,1.07-4.2-.13-9.85-10.49-23.38-11.05-32.99-9.66-28.14,4.04-60.47,29.03-75.2,58.13-12.19,24.08-16.66,52.36-12.59,79.61,3.03,20.25-4.19,26.8-11.82,33.72-4.82,4.38-9.8,8.9-12.83,17.8-2.84,8.37-1.6,17.55-.29,27.27,1.45,10.7,2.94,21.76-.78,32.93-2.48,7.44-7.12,13.46-11.62,19.27-8.54,11.05-16.6,21.49-11.03,41.76,.43,1.58-.5,3.21-2.08,3.65-.26,.07-.53,.11-.79,.11Z"/>
    </g>
  </g>
</svg>