<?xml version="1.0" encoding="UTF-8"?>
<svg id="Layer_2" data-name="Layer 2" xmlns="http://www.w3.org/2000/svg" viewBox="0 0 481.34 694.6">
  <defs>
    <style>
      .cls-1 {
        fill: #ffddc0;
      }

      .cls-1, .cls-2, .cls-3, .cls-4 {
        fill-rule: evenodd;
      }

      .cls-2 {
        fill: #fba89f;
      }

      .cls-3 {
        fill: #fff;
      }
    </style>
  </defs>
  <g id="_Layer_" data-name="&amp;lt;Layer&amp;gt;">
    <g>
      <path class="cls-2" d="M276.44,17.27c14.58,.79,26.39,12.05,36.36,24.93,14.85,19.2,25.41,45.93,33.44,78.5,2.98,12.09,1.83,35.03,4.74,46.11,3.79,14.38,17.87,25.06,23.54,35.26,7.39,13.28,6.07,24.08,6.07,24.08l-12.48,67.26-49.39-16.76-149.71,1.98-72.22,24.85,9.7-92.18s-3.25-9.52,1.37-22.17c3.02-8.26,13.86-16.4,15.73-29.12,2.29-15.58-1.77-31.22,.71-49.5,3.37-24.74,14.38-52.05,28.62-69.51,11.86-14.56,37.93-35.93,58.42-38.73,27.59-3.78,50.37,14.21,65.1,15.01Z"/>
      <path class="cls-1" d="M162.38,148.9s-23.38-48.46,13.68-63.42c15.93-6.43,50.32-14.62,71.54-3.56,17.48,9.11,21.74,36.34,36.68,44.31,14.05,7.5,26.58-6.68,33.11,1.37,13.58,16.74-5.08,36.98-5.08,36.98l5.7,6.75,26.52,18.55,12.58,17.9,18.12,11.01,9.38,24.63s20.38,22.39,34.83,52.62c13.85,28.95,21.48,64.93,35.31,102.46,9.53,25.85,17.65,48.92,21.93,72.21,6.27,34.07-12.95,82.58-34.3,84.95-6.31,.71-16.52-4.28-26.13-13.49-17.27-16.54-34.17-42.37-34.17-42.37l-24.31-143.09,9.34-65.97-32.32-25.54s-8.73-12.59-18.7-30.5c-11.23-20.16-24.17-39.41-24.17-39.41,0,0-3.46,37,3.93,57.4,7.39,20.4,27.59,24.78,27.59,24.78,0,0-52.34,57.25-82.08,55.61-49.44-2.73-71.99-53.23-71.99-53.23,0,0,19.97-7.89,28.13-20.09,8.17-12.21,4.53-28.73,4.53-28.73,0,0-7.83-5.04-15.35-14.18-7.52-9.14-14.72-22.36-14.72-22.36,0,0-7.48,12.51-14.28,25.95-6.53,12.9-12.2,26.47-21.5,39.82-9.32,13.38-22.9,20.07-30.52,27.47-7.89,7.68-9.66,15.81-9.66,15.81l27.81,60.32-18.08,133.15s-40.11,62.07-70.61,58.87c-14.06-1.47-28-47.69-31.58-65.06-4.8-23.26,8.08-57.5,20.53-98.03,10.61-34.56,17.81-70.29,24.95-92.91,4.3-13.65,11.31-23.06,11.31-23.06l20.02-24.57,7.36-26.17,16.18-10.31,15.49-22.81,24.52-17,18.45-27.08Z"/>
      <path class="cls-3" d="M168.97,278.03s9.47,11.38,23.86,19.87c15.28,9.01,36.07,15.17,55.72,15.04,19.21-.13,37.61-6.83,51.14-15.83,13.36-8.89,21.99-20.09,21.99-20.09l47.35,15.5s14.85,26.27,21.82,56.41c6.96,30.14,6.03,64.14,6.03,64.14l-14.1,9.65s4.84,27.18,4.6,46.22c-.23,19.03-5.53,29.92-5.53,29.92,0,0-6.59,11.6-8.7,57.68-2.12,46.08,.25,126.63,.25,126.63,0,0-59.74,11.42-124.07,11.42s-133.23-11.42-133.23-11.42c0,0,2.82-82.01,.41-127.55-2.42-45.53-10.06-54.59-10.06-54.59,0,0-4.4-14.25-4.83-32.45-.45-18.2,3.08-40.34,3.08-40.34l-14.71-8.81-11.75-2.38s1.28-38.81,5.64-67.07c4.36-28.26,11.8-45.99,11.8-45.99l73.32-25.96Z"/>
      <path class="cls-3" d="M172.64,47.71c30.4-18.89,64.84-19.86,88.5-13.82,11.43,2.92,33.31,19.21,42.87,40.43,10.22,22.72,7.73,50.36,7.73,50.36l-6.46,.49s-3.99-25.56-19.09-45.61c-11.39-15.13-31.27-25.65-48.42-28-19.49-2.67-51.03,4.05-68.87,17.32-18.67,13.89-23.2,34.42-23.2,34.42,0,0-3.61-6.01-.44-17.9,3.04-11.38,12.51-28.45,27.38-37.68Z"/>
      <path class="cls-3" d="M285.7,178.78l2.13-4.83s-7.15-12.9-7.98-19.19c-.83-6.28,5.64-6.19,5.64-6.19l.75-6.5s-3.37-4.26-6.17-5.11c-6.72-2.07-14.83-.68-16.47,6.97-1.07,4.98,2.24,9.99-.21,16.73-1.12,3.07-9.57,7-7.79,16.45,1.79,9.45,7.99,8.88,11.13,13.17,3.12,4.3,3.11,8.63,10.14,8.21,8.76-.53,13.24-7.98,13.24-7.98l-4.41-11.74Z"/>
      <path class="cls-3" d="M177.1,159.9c11.5,1.68,4.92,9.53,8.47,20.11,2.65,7.93,14.93,13.85,6.18,24.79-5.27,6.58-19.36-1.16-19.36-10.22l2.69-14.03-3.87-4.34,3.08-7.95,2.82-8.35Z"/>
      <path d="M75.1,514.49c-.22,0-.45-.03-.67-.08-1.6-.37-2.6-1.96-2.23-3.56,1.58-6.85,4.22-18.3,2.4-68.06-1.46-40,7.39-116.51,18.43-139.95,7.38-15.67,11.16-18.71,19.42-25.36,3.93-3.16,8.81-7.09,15.75-13.72,7.48-7.15,18.34-25.01,24.73-40.65,.64-1.57,2.13-4.46,4.2-8.46,3.77-7.3,14.99-29.02,14.3-34.17-3.04,1.23-10.1,11.72-13.98,17.48-2.16,3.2-4.28,6.36-6.28,9.08-8.01,10.91-13.95,23.8-14.01,23.93-.68,1.49-2.45,2.14-3.94,1.46-1.49-.68-2.15-2.45-1.46-3.94,.25-.55,6.24-13.56,14.62-24.98,1.95-2.66,4.04-5.75,6.15-8.88,8.2-12.17,13.49-19.66,18.73-20.19,1.63-.15,3.21,.39,4.41,1.57,4.57,4.49-.63,16.91-13.25,41.35-1.84,3.57-3.44,6.65-3.98,7.98-6.66,16.29-18.13,35.05-26.13,42.7-7.12,6.81-12.11,10.83-16.12,14.05-7.99,6.43-10.97,8.83-17.78,23.27-9.72,20.63-19.41,95.01-17.87,137.2,1.71,46.64-.42,60.38-2.54,69.6-.32,1.37-1.54,2.31-2.89,2.31Z"/>
      <path d="M124.71,225.39c-.51,0-1.03-.13-1.51-.41-1.41-.83-1.88-2.66-1.04-4.07,.63-1.07,15.64-26.4,27.84-41.92,4.11-5.22,7.31-10.03,10.13-14.26,6.02-9.04,10.02-15,15.8-12.6,1.37,.57,2.38,1.65,2.93,3.13,2.21,5.93-4.11,19.38-6.1,23.37-.73,1.47-2.52,2.05-3.98,1.33-1.47-.73-2.07-2.52-1.33-3.99,3.78-7.58,6.49-16.03,5.94-18.37-1.55,.28-5.59,6.33-8.31,10.42-2.74,4.11-6.15,9.23-10.4,14.64-11.96,15.21-27.25,41.02-27.4,41.27-.55,.94-1.54,1.46-2.56,1.46Z"/>
      <path d="M114.66,221.05c-.56,0-1.13-.16-1.64-.5-1.37-.91-1.74-2.75-.83-4.12,.2-.3,19.95-30.03,32.11-45.49,4.11-5.23,7.31-10.03,10.13-14.27,6.02-9.03,10-15,15.8-12.59,1.78,.74,5.67,3.34,3.36,11.47-.45,1.58-2.08,2.5-3.67,2.04-1.58-.45-2.49-2.09-2.04-3.67,.72-2.55,.58-4.14,.07-4.36-1.41-.49-5.68,6.04-8.58,10.39-2.74,4.11-6.15,9.23-10.4,14.64-12,15.28-31.62,44.81-31.82,45.11-.58,.86-1.52,1.33-2.48,1.33Z"/>
      <path d="M37.24,557.65c-2.9,0-5.61-.56-8.08-1.77-15.14-7.41-22.09-36.99-27.17-58.58l-.6-2.56c-5.31-22.45,5.83-57.69,13.2-81.02,1.75-5.53,3.3-10.43,4.37-14.36,5.67-20.68,10.07-37.88,13.61-51.7,6.94-27.12,11.13-43.48,17.06-56.58,4.48-9.89,12.61-21.57,24.85-35.7,11.91-13.73,23.26-32.82,31.55-46.76,1.71-2.87,3.3-5.55,4.78-8,5.32-8.77,13.48-14.85,21.36-20.73,5.75-4.28,11.18-8.33,15.46-13.27,1.07-1.24,2.96-1.37,4.19-.3,1.24,1.07,1.38,2.95,.3,4.19-4.7,5.43-10.64,9.86-16.4,14.15-7.44,5.54-15.12,11.27-19.84,19.05-1.47,2.43-3.06,5.1-4.76,7.95-8.4,14.13-19.91,33.49-32.16,47.62-4.36,5.03-17.62,20.34-23.93,34.26-5.71,12.62-9.85,28.79-16.72,55.59-3.54,13.84-7.95,31.07-13.63,51.8-1.09,3.99-2.66,8.96-4.44,14.58-7.17,22.7-18.01,57-13.08,77.86l.6,2.57c4.53,19.29,11.39,48.44,24,54.61,17.41,8.52,54.54-27.3,71.11-55.59,.83-1.41,2.65-1.89,4.07-1.06,1.42,.83,1.89,2.65,1.06,4.07-15.84,27.03-48.66,59.68-70.77,59.68Z"/>
      <path d="M76.17,260.62c-.52,0-1.04-.14-1.52-.42-1.41-.84-1.87-2.67-1.03-4.07,4.9-8.21,7.46-16.46,9.32-22.48,1.5-4.86,2.5-8.08,4.17-9.96,1.67-1.89,4.54-3.9,7.85-6.23,3.46-2.43,7.39-5.19,10.81-8.38,1.2-1.12,3.08-1.05,4.2,.15,1.12,1.2,1.04,3.08-.16,4.2-3.72,3.46-7.82,6.34-11.44,8.88-2.89,2.03-5.61,3.95-6.83,5.32-.82,.92-1.9,4.4-2.94,7.77-1.96,6.31-4.63,14.95-9.89,23.77-.56,.93-1.54,1.45-2.56,1.45Z"/>
      <path d="M403.95,505.51c-1.29,0-2.48-.85-2.85-2.15-2.63-9.1-5.52-22.72-6.4-69.35-.08-3.99-.12-7.98-.17-11.99-.43-36.53-.87-74.31-24.12-119.69-6.1-11.9-12.63-16.6-20.89-22.56-4.94-3.56-10.53-7.59-16.62-13.72-8.11-8.19-20.87-29.53-28.04-44.61-.62-1.3-2.38-4.29-4.42-7.75-13.96-23.7-19.84-35.82-15.53-40.55,1.13-1.24,2.68-1.91,4.31-1.81,5.27,.24,10.97,7.42,19.83,19.12,2.28,3.01,4.53,5.98,6.63,8.53,9.09,11.03,14.72,24.19,14.96,24.74,.64,1.51-.07,3.25-1.58,3.89-1.52,.65-3.25-.06-3.9-1.57-.05-.12-5.55-12.94-14.08-23.29-2.15-2.61-4.44-5.64-6.77-8.71-4.2-5.54-11.83-15.62-14.93-16.68-.4,5.18,12,26.24,16.17,33.32,2.28,3.88,3.94,6.68,4.66,8.21,7.85,16.5,20.17,36.18,26.9,42.97,5.74,5.78,10.88,9.5,15.87,13.09,8.56,6.17,15.95,11.5,22.69,24.67,23.88,46.62,24.34,85.11,24.77,122.32,.04,3.99,.09,7.97,.17,11.94,.95,49.76,4.22,61.07,6.17,67.82,.46,1.58-.45,3.22-2.03,3.68-.28,.08-.55,.12-.83,.12Z"/>
      <path d="M336.68,220.57c-1,0-1.98-.51-2.54-1.42-.16-.27-16.42-26.8-29.75-41.71-4.75-5.32-8.61-10.39-11.71-14.46-3.71-4.87-8.34-10.94-9.77-10.24-.57,1.63,2.85,10.65,7.48,18.64,.82,1.42,.34,3.24-1.08,4.06-1.42,.82-3.24,.34-4.06-1.08-2.3-3.97-9.65-17.39-7.72-23.62,.48-1.55,1.46-2.71,2.83-3.36,5.8-2.77,10.28,3.12,17.05,12.01,3.04,3.99,6.82,8.96,11.42,14.1,13.7,15.32,29.72,41.47,30.4,42.58,.86,1.4,.41,3.22-.99,4.08-.48,.29-1.02,.44-1.54,.44Z"/>
      <path d="M343.64,212.69c-.98,0-1.93-.48-2.5-1.35-.17-.27-17.88-27.56-31.25-42.5-4.76-5.32-8.62-10.39-11.71-14.47-3.71-4.87-8.35-10.9-9.77-10.24-.68,.32-.58,2.2,.25,4.58,.54,1.55-.27,3.24-1.82,3.78-1.55,.54-3.24-.27-3.78-1.83-2.87-8.19,1-11.05,2.8-11.9,5.8-2.75,10.27,3.11,17.04,12.01,3.04,3.99,6.82,8.96,11.42,14.1,13.67,15.29,31.08,42.1,31.81,43.23,.89,1.38,.5,3.22-.88,4.11-.5,.32-1.06,.48-1.61,.48Z"/>
      <path d="M441.14,558.09c-27.37,0-59.18-54.98-60.68-57.59-.81-1.42-.32-3.24,1.1-4.06,1.44-.8,3.24-.31,4.06,1.1,10.56,18.46,42.29,63.95,62.06,52.89,12.46-6.98,23.19-33.24,26.97-54.42,3.88-21.74-7.84-53.79-15.59-75-1.65-4.49-3.13-8.55-4.28-12-5.33-15.92-10.09-30.49-14.39-43.66-11.48-35.16-19.78-60.57-26.9-74.61-10.68-21.08-21.76-34-27.41-39.83-13.04-13.45-25.61-32.15-34.79-45.81-1.83-2.73-3.56-5.3-5.15-7.63-5.14-7.5-13.14-12.8-20.87-17.92-5.98-3.96-12.17-8.05-17.16-13.21-1.14-1.18-1.11-3.06,.07-4.2,1.17-1.15,3.07-1.11,4.2,.07,4.54,4.69,10.19,8.43,16.17,12.39,8.21,5.43,16.7,11.05,22.49,19.51,1.6,2.34,3.34,4.92,5.19,7.67,9.06,13.48,21.46,31.93,34.13,45,5.88,6.07,17.4,19.5,28.44,41.27,7.32,14.45,15.68,40.04,27.25,75.45,4.29,13.16,9.05,27.71,14.38,43.62,1.14,3.4,2.6,7.4,4.23,11.84,7.97,21.81,20.02,54.76,15.86,78.08-3.33,18.67-14.04,49.67-29.91,58.56-3.05,1.71-6.22,2.47-9.44,2.47Z"/>
      <path d="M388.79,252.1c-.96,0-1.89-.46-2.47-1.31-5.75-8.52-8.9-16.99-11.2-23.19-1.23-3.3-2.5-6.72-3.36-7.59-1.29-1.3-4.12-3.06-7.11-4.92-3.75-2.34-8.01-4.99-11.92-8.24-1.26-1.05-1.44-2.92-.39-4.18,1.05-1.26,2.93-1.43,4.18-.39,3.6,2.99,7.68,5.53,11.27,7.77,3.44,2.14,6.4,3.99,8.18,5.78,1.77,1.78,2.94,4.93,4.71,9.7,2.2,5.91,5.2,14,10.56,21.94,.91,1.36,.56,3.2-.8,4.12-.51,.34-1.08,.51-1.66,.51Z"/>
      <path d="M103.78,431.14c-.77,0-1.54-.3-2.12-.89-.07-.07-8.13-7.99-23.18-10.52-1.62-.27-2.71-1.8-2.44-3.42,.27-1.62,1.85-2.73,3.42-2.44,17.06,2.86,26.05,11.83,26.42,12.21,1.15,1.17,1.14,3.05-.03,4.2-.58,.57-1.33,.86-2.08,.86Z"/>
      <path d="M384.12,424.37c-.57,0-1.14-.17-1.64-.5-1.37-.91-1.74-2.76-.83-4.12,3.71-5.56,13.42-8.42,14.52-8.72,1.58-.45,3.22,.48,3.66,2.06,.45,1.58-.47,3.22-2.05,3.66-3.33,.94-9.3,3.48-11.18,6.3-.58,.86-1.52,1.33-2.48,1.33Z"/>
      <path d="M311.92,167.17c-.95,0-1.88-.45-2.46-1.29-.93-1.35-.58-3.2,.77-4.13,5.86-4.03,9.11-9.66,9.93-17.23,.69-6.32-1.36-11.73-5.47-14.49-3.67-2.46-8.51-2.37-13.29,.22-1.46,.79-3.25,.24-4.03-1.19-.78-1.44-.25-3.25,1.2-4.03,6.79-3.69,13.87-3.66,19.44,.07,5.98,4.01,8.99,11.51,8.06,20.07-1.01,9.26-5.21,16.49-12.48,21.48-.51,.35-1.1,.52-1.68,.52Z"/>
      <path d="M305.05,152.46c-.34,0-.69-.06-1.03-.19-1.54-.57-2.33-2.27-1.76-3.8,.07-.18,1.66-4.47,4.93-7.75,1.16-1.16,3.04-1.17,4.2,0,1.16,1.16,1.16,3.04,0,4.2-2.33,2.34-3.56,5.58-3.57,5.61-.44,1.2-1.58,1.94-2.79,1.94Z"/>
      <path d="M162.02,152.07c-1.28,0-2.47-.84-2.85-2.13-.17-.56-4.12-13.96-6.2-24.27-2.05-10.22,.33-21.97,6.21-30.65,4.67-6.89,11.1-11.26,18.58-12.63,1.62-.28,3.16,.77,3.46,2.39,.29,1.61-.77,3.16-2.39,3.46-7.43,1.36-12.12,6.26-14.74,10.13-4.94,7.3-7.02,17.56-5.3,26.15,2.02,10.04,6.02,23.62,6.06,23.75,.47,1.57-.43,3.23-2,3.69-.28,.08-.57,.12-.84,.12Z"/>
      <path d="M230.67,246.79c-11.41,0-25.43-7.84-34.66-15.98-10.09-8.88-21.34-19.97-27.13-39.23-.47-1.57,.41-3.23,1.99-3.7,1.59-.46,3.23,.42,3.7,1.99,5.35,17.76,15.9,28.15,25.38,36.48,10.25,9.03,23.71,15.17,32.11,14.44,7.05-.55,34.04-10.95,46.66-27.71,.99-1.31,2.84-1.58,4.16-.58,1.31,.99,1.58,2.85,.59,4.16-13.75,18.26-41.94,29.34-50.94,30.06-.6,.04-1.22,.07-1.84,.07Z"/>
      <path d="M215.68,183.36c-.64,0-1.29-.21-1.83-.63-4.57-3.57-6.77-6.52-7.13-9.56-.4-3.36,1.54-5.79,3.25-7.94,1.51-1.91,2.95-3.71,3.1-6.23,.36-6.03-4.92-14.48-6.99-17.23-.99-1.31-.72-3.17,.59-4.16,1.31-.99,3.17-.72,4.16,.58,.36,.47,8.73,11.71,8.17,21.16-.26,4.39-2.54,7.26-4.37,9.57-1.3,1.64-2.09,2.69-2,3.54,.09,.73,.84,2.42,4.89,5.58,1.29,1.01,1.52,2.88,.51,4.17-.59,.75-1.46,1.14-2.34,1.14Z"/>
      <path class="cls-4" d="M250.35,139.7c-1.1-4.31-4.75-7.09-8.14-6.23-3.39,.87-5.25,5.06-4.15,9.37,1.1,4.3,4.75,7.09,8.14,6.22,3.39-.87,5.25-5.06,4.15-9.37Z"/>
      <path class="cls-4" d="M195.28,148.5c-1.1-4.31-4.74-7.1-8.14-6.23-3.39,.87-5.25,5.06-4.15,9.37,1.11,4.3,4.75,7.09,8.14,6.22,3.39-.87,5.24-5.06,4.15-9.37Z"/>
      <path d="M115.58,686.51s-.1,0-.15,0c-1.64-.08-2.9-1.47-2.83-3.11,2.54-53.55,2.65-101.08,.31-133.82-1.52-21.27-5.86-38.05-9.33-51.53-2.24-8.68-4.17-16.16-4.78-22.67-1.43-15.35,.51-30.77,2.4-45.69,2.06-16.33,4.2-33.22,1.82-49.85-.23-1.62,.9-3.13,2.52-3.36,1.59-.2,3.12,.89,3.36,2.52,2.49,17.43,.31,34.72-1.8,51.44-1.84,14.6-3.75,29.69-2.37,44.39,.56,6.03,2.44,13.31,4.61,21.74,3.54,13.72,7.95,30.79,9.51,52.6,2.35,32.97,2.25,80.75-.3,134.53-.08,1.59-1.39,2.83-2.96,2.83Z"/>
      <path d="M373.27,687.04c-1.58,0-2.89-1.24-2.96-2.83-2.55-53.8-2.66-101.58-.3-134.53,1.56-21.82,5.96-38.89,9.51-52.61,2.17-8.43,4.05-15.7,4.61-21.73,1.37-14.7-.53-29.79-2.37-44.38-2.11-16.72-4.29-34.02-1.8-51.44,.23-1.63,1.75-2.74,3.36-2.52,1.62,.23,2.75,1.74,2.52,3.36-2.38,16.64-.25,33.53,1.82,49.86,1.88,14.91,3.83,30.33,2.4,45.68-.61,6.5-2.54,13.99-4.78,22.66-3.48,13.49-7.81,30.28-9.33,51.55-2.34,32.73-2.23,80.25,.31,133.82,.08,1.64-1.19,3.03-2.83,3.11-.05,0-.1,0-.15,0Z"/>
      <path d="M95.79,308.5c-1.09,0-2.13-.6-2.66-1.63-.74-1.47-.15-3.25,1.31-3.99,13.6-6.85,28.83-11.97,43.56-16.92,20.25-6.8,39.38-13.22,53.32-23.53,7.8-5.76,8.63-12.51,7.18-29.85-.14-1.63,1.08-3.07,2.71-3.2,1.5-.19,3.07,1.08,3.2,2.71,1.37,16.44,1.41,27-9.57,35.12-14.7,10.87-34.26,17.44-54.96,24.39-14.53,4.88-29.55,9.93-42.77,16.59-.43,.22-.89,.32-1.33,.32Z"/>
      <path d="M368.63,296.44c-.32,0-.64-.05-.96-.16-3.81-1.3-7.66-2.58-11.51-3.85-19.86-6.56-40.4-13.34-55.49-24.49-9.55-7.06-13.34-31.33-11.6-74.2,.07-1.64,1.46-2.91,3.09-2.85,1.64,.07,2.91,1.45,2.85,3.09-2.15,52.7,4.84,65.96,9.2,69.19,14.32,10.59,34.4,17.21,53.82,23.62,3.87,1.28,7.74,2.56,11.57,3.86,1.55,.53,2.38,2.22,1.85,3.77-.42,1.24-1.58,2.01-2.81,2.01Z"/>
      <path d="M249.01,316.16c-35.06,0-66.6-18.01-81.28-35.01-1.07-1.24-.93-3.12,.31-4.19,1.24-1.06,3.11-.93,4.19,.31,14.48,16.77,46.08,33.61,78.34,32.94,26.65-.43,50.22-12.38,68.14-34.55,1.03-1.27,2.9-1.47,4.18-.44,1.27,1.04,1.47,2.91,.44,4.18-19.07,23.58-44.2,36.29-72.67,36.75-.55,0-1.1,.01-1.65,.01Z"/>
      <path d="M381.6,240.33c-.06,0-.12,0-.19,0-1.64-.1-2.88-1.51-2.78-3.15,1.56-25.3-7.73-36.4-16.72-47.14-7.9-9.44-16.08-19.21-16.08-37.53,0-34.18-12.02-73.91-30.62-101.23-18.75-27.55-33.93-30.54-44.95-30.05-1.85,.04-3.03-1.21-3.1-2.84-.07-1.64,1.2-3.02,2.84-3.1,18.55-.81,34.41,9.57,50.11,32.64,19.23,28.24,31.66,69.28,31.66,104.57,0,16.16,6.81,24.3,14.69,33.72,9.28,11.09,19.79,23.66,18.09,51.31-.09,1.58-1.4,2.79-2.96,2.79Z"/>
      <path d="M106.58,215.59c-1.37,0-2.61-.96-2.9-2.35-4.11-19.32,2.91-28.99,9.09-37.52,5.7-7.87,10.63-14.66,8.48-28.48-5.6-36.26,4.32-65.22,13.62-83.13C152.94,29.34,182.6,5.03,212.27,.67c17.46-2.56,33.15,2.28,44.19,13.64,1.15,1.18,1.12,3.06-.06,4.2-1.17,1.14-3.06,1.12-4.2-.06-9.68-9.96-23.57-14.17-39.06-11.9-27.82,4.09-55.79,27.19-73,60.3-8.9,17.12-18.38,44.81-13.02,79.48,2.51,16.24-3.62,24.7-9.55,32.88-5.99,8.26-11.64,16.07-8.09,32.8,.34,1.6-.68,3.18-2.29,3.52-.21,.04-.41,.06-.62,.06Z"/>
      <path class="cls-4" d="M201.5,231.1s12.31,13.75,31.71,12.2,44.11-22.64,44.11-22.64c0,0-18.72,27.83-36.87,35.48-15.92,6.7-38.05-6.77-38.05-6.77l-.9-18.27Z"/>
      <path d="M192.91,83.39c-.79,0-1.58-.31-2.16-.93-.04-.04-4.32-4.5-9.68-5.6-1.61-.33-2.64-1.9-2.31-3.51,.33-1.61,1.94-2.64,3.51-2.31,7.25,1.49,12.59,7.11,12.82,7.35,1.12,1.2,1.06,3.07-.13,4.19-.57,.54-1.3,.81-2.04,.81Z"/>
      <path d="M220.99,80.9c-.25,0-.5-.03-.75-.1-1.58-.41-2.54-2.02-2.13-3.61,.12-.48,3.15-11.81,13.4-14.75,1.59-.45,3.22,.46,3.67,2.04,.45,1.58-.46,3.22-2.04,3.68-6.95,1.99-9.26,10.44-9.28,10.53-.35,1.33-1.56,2.22-2.87,2.22Z"/>
      <path d="M287.87,128.74c-.08,0-.15,0-.23,0-12.2-.93-17.78-12-23.18-22.7-6.52-12.94-12.68-25.17-29.57-23.83-1.64,.12-3.07-1.09-3.2-2.73-.13-1.64,1.09-3.07,2.73-3.2,20.84-1.63,28.56,13.61,35.35,27.08,5.08,10.07,9.46,18.78,18.32,19.45,1.63,.12,2.86,1.55,2.74,3.19-.12,1.56-1.42,2.74-2.96,2.74Z"/>
      <path d="M158.61,144.17c-.67,0-1.35-.23-1.9-.69-10.5-8.76-16.17-16.91-14.05-32.71,3.72-27.76,24.68-58.93,72.33-63.17,68.3-6.09,90.08,52.29,92.69,75.3,.19,1.63-.99,3.1-2.62,3.29-1.62,.15-3.1-.99-3.29-2.62-2.44-21.41-22.68-75.72-86.27-70.05-55.58,4.95-65.31,45.68-66.97,58.05-1.79,13.3,2.44,19.42,11.96,27.36,1.26,1.05,1.43,2.92,.38,4.18-.58,.71-1.43,1.07-2.28,1.07Z"/>
      <path d="M311.74,128.29c-.05,0-.1,0-.16,0-1.64-.08-2.9-1.48-2.82-3.12,.73-14.25-.02-49.81-22.55-72.28-14.21-14.17-34.73-20.64-60.9-19.23-28.79,1.55-54.35,14.29-68.38,34.08-8.83,12.46-11.76,25.96-8.24,38,.46,1.58-.45,3.22-2.02,3.68-1.59,.46-3.22-.45-3.68-2.02-4.04-13.83-.8-29.13,9.1-43.1,15.07-21.26,42.33-34.94,72.91-36.58,27.97-1.51,49.97,5.54,65.42,20.95,24.22,24.16,25.05,61.75,24.29,76.79-.08,1.59-1.39,2.82-2.96,2.82Z"/>
      <path d="M228.61,119.12c-1.01,0-2-.51-2.55-1.44-.84-1.41-.39-3.23,1.02-4.07,12.93-7.76,23.86-1.78,24.31-1.52,1.43,.8,1.94,2.62,1.13,4.05-.8,1.43-2.6,1.93-4.03,1.14-.37-.2-8.5-4.49-18.36,1.43-.48,.29-1.01,.42-1.53,.42Z"/>
      <path d="M171.64,129.68c-.8,0-1.6-.32-2.19-.96-1.11-1.21-1.03-3.09,.18-4.2,8.06-7.4,20.42-4.72,20.95-4.61,1.6,.36,2.6,1.94,2.24,3.54-.36,1.6-1.94,2.61-3.54,2.26-.1-.03-9.89-2.09-15.64,3.18-.57,.52-1.29,.78-2.01,.78Z"/>
      <path d="M216.78,206.46c-4.37,0-8.48-.6-11.92-1.76-1.56-.52-2.39-2.21-1.87-3.76s2.2-2.39,3.76-1.87c8.54,2.87,25.48,1.9,35.12-7.39,1.18-1.14,3.07-1.1,4.2,.08,1.13,1.18,1.1,3.06-.08,4.2-7.52,7.23-19.06,10.51-29.22,10.51Z"/>
    </g>
  </g>
</svg>