<?xml version="1.0" encoding="UTF-8"?>
<svg id="Layer_2" data-name="Layer 2" xmlns="http://www.w3.org/2000/svg" viewBox="0 0 481.36 725.73">
  <defs>
    <style>
      .cls-1 {
        fill: #ffddc0;
      }

      .cls-1, .cls-2, .cls-3, .cls-4 {
        fill-rule: evenodd;
      }

      .cls-2 {
        fill: #fba89f;
      }

      .cls-3 {
        fill: #fff;
      }
    </style>
  </defs>
  <g id="_Layer_" data-name="&amp;lt;Layer&amp;gt;">
    <g id="_Ñëîé_2" data-name="Ñëîé 2">
      <g>
        <path class="cls-2" d="M216.4,85.17c7.06-11.34,16.98-21.32,28.75-29.03,8.32-5.45,20.33-3.09,29.47-8.58,9.14-5.49,29.23-9.41,45.61-5.87,18.72,4.05,40.48,16.93,55.37,32.46,12.76,13.31,33.23,46.66,38.99,71.8,7.82,34.18-.91,60.67,5.56,70.58,6.64,10.18,15.12,19.97,20.27,30.97,4.41,9.42-6.95,39.78-3.83,49.56,4.47,14.06,19.02,23.91,22.8,34.12,5.35,14.45,.11,24.8,.45,32.24,.31,6.76,6.42,11.26,6.42,11.26,0,0-6.55,4.26-12.03,1.49-5.48-2.77-9.89-12.56-9.89-12.56l-69.26-46.54-128.56-25.38s-21.42-2.89-40.32-3.22c-18.91-.33-35.3,1.91-35.3,1.91,0,0,4.54-5.38,5.7-17.82,.57-6.12-4.52-14.75-1.93-23.71,2.71-9.39,19.41-22.75,21.06-34.25,2.88-20.03-6.5-35.16-4.92-57.55,1.65-23.33,14.42-53.88,25.6-71.88Z"/>
        <path class="cls-3" d="M244.77,290.74l129.61,24.49s14.67,12.12,31.59,22.62c17.36,10.77,37.07,20.11,45.77,36.1,15.69,28.82,12.01,91.68,12.01,91.68l-13.79,4.8-11.35,1.72,3.24,37.55s-7.27,28.88-10.74,81.72c-3.46,52.84-3.11,129.63-3.11,129.63-25.11,2.53-56.98,4.69-91.78,4.69-76.44,0-163.86-11.21-163.86-11.21,0,0,11.9-82.47,6.32-132.05-3.69-32.86-10.72-63.41-16.45-89.78-6.13-28.2-10.86-51.11-10.86-51.11l-42.88-98.47s26.82-38.45,46.11-47.47c30.6-14.31,90.17-4.89,90.17-4.89Z"/>
        <path class="cls-1" d="M236.67,125.56c7.22-11.3,22.38-21.51,39.45-19.07,5.14,.74,10.7,1.38,15.79,7.03,11.1,12.34,21.72,35.38,33.46,42.36,16.85,10.02,32.25,7.42,43.1,9.74,7.99,1.71,13.92,8.41,14.05,12.92,.59,19.92-17.11,24.22-17.11,24.22,0,0-9.53,57-6.79,85.48,1.51,15.68,16.37,27.35,16.37,27.35,0,0-24.22,47.21-61.76,36.07-54.2-16.08-67.53-60.8-67.53-60.8,0,0,10.93,2.83,17.02-3.89s7.35-23.01,7.35-23.01c0,0-10.43-7.74-19.14-17.36-6.15-6.8-10.36-12.49-14.16-26.03-2.48-8.83-5.29-26.34-6.51-35.55-1.24-9.42-9.58-23.49-7.67-31.86,1.21-5.31,11.43-23.48,14.08-27.62Z"/>
        <path class="cls-1" d="M437.68,472.24l26.73-9.32s-2.11,65.24,2.11,127.9c4.18,62.07,11.14,122.95,11.14,122.95,0,0-10.59,2.41-23.08,4.18-12.49,1.77-26.88,2.9-26.88,2.9,0,0-.53-47.86,1.96-110,1.21-30.25,7.23-70.59,10.62-93.01,3.58-23.65-2.61-45.59-2.61-45.59Z"/>
        <path class="cls-1" d="M117.16,124.19c-2.14-.17-4.47,1.05-5.28,2.43-7.95,13.55-21.56,31.99-21.56,31.99,0,0,2.26-12.28,1.71-19.99-.45-6.4-3.35-8.77-5.71-6.57-4.17,3.88-18.28,31.28-18.28,31.28,0,0-8.98-15.19-12.71,11.57-.52,3.68-1.96,13.58-2.29,18.56-.29,4.27,18.29,26.98,18.13,31.71-.99,29.84-4.21,50.67-11.85,73.12-7.47,21.93-22.07,58-34.7,90.4-10.67,27.38-20.1,51.06-21.42,73.26-1.27,21.25,6.34,49.4,12.28,58.41,10,15.17,33.95,3.22,58.41-12.71,19.36-12.6,41.03-32.94,57.12-47.27,18.5-16.48,30.13-26.13,30.13-26.13,0,0-1.21-32.17-14.42-54.7-13.22-22.52-38.42-35.42-38.42-35.42l-21.71,29.42s4.07-24.71,9.71-43.85c5.64-19.13,12.85-30.41,12.85-30.41,0,0,6.68-7.61,15.14-15.14,8.46-7.53,17.12-18.07,25.85-26.71,8-7.91,16.35-13.95,18.28-19.14,1.74-4.68,6.43-15.96,6.99-18.99,.72-3.88-2.65-5.51-5.57-5.14-4.12,.52-8.55,4.05-8.71,2.43-.53-5.26-.74-13.41-2.86-16.85-3.37-5.47-18.01-15.04-24.42-15.42-7.53-.45-23.99,14.71-23.99,14.71,0,0-4.08-16.75-1.86-27.14,3.3-15.36,12.86-29.63,13.14-41.7,.1-4.3-1.87-5.83-4-6Zm18.15,79.73c1.26-.06,8.32,3.47,8.39,4.73,2.72,3.57,6.01,10.97,6.32,11.36,.78,.99,7.05,3.67,6.06,4.45-.48,.38-4.86,7.85-9.85,11.46-5.4,3.9-11.46,3.94-12.11,3.83-8.29-1.37-14-18.18-13.82-19.43,.7-5.13,13.75-16.35,15.01-16.41Z"/>
        <path class="cls-3" d="M151.79,69.22c-1.63-4.47-4.36-20.25-4.36-20.25,0,0-2.7,17.04-3.65,20.62-.85,3.22-12.75,5.05-12.75,5.05,0,0,11.59,1.77,12.8,5.14,1.22,3.37,4.3,22.41,4.3,22.41,0,0,3.08-18.45,3.93-22.35,.8-3.66,12.59-5.38,12.59-5.38,0,0-11.6-1.76-12.87-5.24Z"/>
        <path class="cls-3" d="M196.25,16.47c-1.33-3.64-3.55-16.47-3.55-16.47,0,0-2.2,13.86-2.97,16.77-.69,2.62-10.36,4.11-10.36,4.11,0,0,9.42,1.43,10.41,4.17,.99,2.74,3.49,18.23,3.49,18.23,0,0,2.5-15.01,3.2-18.17,.65-2.97,10.24-4.38,10.24-4.38,0,0-9.43-1.44-10.46-4.26Z"/>
        <path class="cls-3" d="M438.05,68.41c-1.63-4.47-4.36-20.25-4.36-20.25,0,0-2.7,17.04-3.66,20.62-.85,3.22-12.74,5.05-12.74,5.05,0,0,11.58,1.76,12.8,5.14,1.21,3.37,4.3,22.41,4.3,22.41,0,0,3.08-18.45,3.93-22.35,.8-3.66,12.59-5.38,12.59-5.38,0,0-11.6-1.76-12.87-5.24Z"/>
        <path d="M72.25,475.88c-.32,0-.65-.05-.97-.16-1.55-.54-2.37-2.23-1.83-3.78,4.54-13.1,6.34-30.66,8.43-51,1.54-14.99,3.13-30.49,6.03-46.38,6.92-37.89,11.62-54.45,20.94-73.83,3.21-6.68,8.48-10.97,14.06-15.51,3.68-3,7.48-6.1,10.78-10.03,4.91-5.86,15.13-18.04,24.41-25.93,6.93-5.9,10.34-10.65,13.05-18.12,.7-1.92,1.53-3.81,2.33-5.62,1.18-2.68,2.97-6.72,2.43-7.78-.07-.14-.53-.43-1.48-.62-3.48-.76-8.81,6.25-12.32,10.87-2.29,3.02-4.27,5.63-6.16,7.09l-1.37,1.09c-4.41,3.54-12.61,10.13-20.65,4.86-4.65-3.05-9.67-10.31-12.46-18.05-2.13-5.9,11.53-19.92,15.04-21.88,5.56-3.08,11.89,2.08,15.75,8.56,.58,.96,1.08,2.22,1.68,3.67,1.03,2.54,2.76,6.79,4.53,7.33,.64,.19,1.5-.27,2.13-.68,2.5-1.69,1.21-7.7-.14-14.07l-.42-1.99c-1.04-5.01-16.78-17.78-22.52-16.97-4.62,.66-15.55,9.2-21.35,14.43-1.22,1.1-3.1,1-4.2-.22-1.1-1.22-1-3.1,.21-4.2,1.68-1.51,16.59-14.77,24.5-15.9,8.9-1.27,27.52,13.66,29.18,21.64l.42,1.97c.63,2.96,1.24,5.87,1.53,8.56,2.45-1.63,5.06-2.48,7.83-1.92,2.71,.56,4.58,1.81,5.57,3.72,1.85,3.58-.06,7.9-2.28,12.9-.75,1.68-1.53,3.44-2.17,5.24-3.49,9.66-8.25,15.06-14.79,20.62-8.9,7.56-18.91,19.49-23.71,25.22-3.66,4.36-7.68,7.64-11.58,10.81-5.27,4.29-9.82,8-12.46,13.49-9.16,19.04-13.55,34.58-20.44,72.32-2.86,15.66-4.44,31.04-5.97,45.92-2.12,20.7-3.96,38.59-8.72,52.34-.42,1.23-1.58,2-2.81,2Zm63.72-269.74c-.22,0-.42,.04-.58,.14-3.16,1.77-12.06,12.31-12.27,15.11,2.52,6.76,7.08,12.72,10.05,14.67,4.09,2.68,8.8-.61,13.67-4.53l1.46-1.16c.97-.75,2.33-2.43,3.76-4.27-4.04-1.67-6.11-6.76-7.65-10.54-.47-1.16-.87-2.19-1.28-2.87-2.42-4.07-5.52-6.55-7.17-6.55Z"/>
        <path d="M110.83,207.3c-1.31,0-2.51-.88-2.87-2.2-.27-1-6.54-24.7-3.26-36.55,.91-3.28,2.83-7.22,5.06-11.79,3.63-7.44,8.14-16.7,8.27-24.18,.07-4.03-1.08-5.59-1.51-5.69-.35-.09-1.77,.58-3.23,3.34-1.26,2.39-3.47,6.11-5.31,9.2l-1.04,1.76c-1.74,2.94-4.01,6.39-6.21,9.73-2.58,3.91-5,7.6-6.33,10.09-4.2,7.85-5.23,23.87-5.25,24.03-.1,1.64-1.53,2.87-3.15,2.78-1.64-.1-2.88-1.51-2.78-3.15,.04-.71,1.12-17.47,5.94-26.46,1.46-2.73,3.96-6.53,6.61-10.56,2.15-3.26,4.36-6.63,6.06-9.49l1.05-1.77c1.78-3,3.93-6.62,5.16-8.93,2.58-4.89,6.31-7.25,9.96-6.32,3.85,.99,6.08,5.31,5.97,11.55-.15,8.8-4.99,18.72-8.87,26.69-2.01,4.12-3.91,8.01-4.67,10.76-2.37,8.55,1.56,27.03,3.28,33.42,.42,1.59-.52,3.22-2.1,3.64-.25,.07-.51,.1-.77,.1Z"/>
        <path d="M95.33,208.5c-1.08,0-2.12-.59-2.65-1.61-3.11-6.06-13.13-26.38-11.45-33.42,.76-3.2,2.45-8.19,4.07-13.02,1.75-5.17,3.54-10.52,3.95-12.87,1.76-10.24-.17-13.1-.58-13.57-.28-.32-.45-.3-.51-.31-1.66,.47-5.04,7.6-7.51,12.81l-1.65,3.47c-3.53,7.33-7.92,15.36-7.96,15.44-.79,1.43-2.59,1.96-4.03,1.18-1.44-.79-1.96-2.59-1.18-4.03,.04-.08,4.37-7.99,7.82-15.17l1.64-3.44c4.58-9.67,7.61-16.06,12.72-16.2,2.02,.03,3.8,.79,5.16,2.36,2.83,3.27,3.49,9.49,1.95,18.47-.48,2.8-2.28,8.12-4.17,13.76-1.59,4.7-3.23,9.57-3.93,12.51-.8,3.36,5.06,17.83,10.96,29.32,.75,1.46,.17,3.25-1.29,4-.43,.22-.9,.33-1.35,.33Z"/>
        <path d="M29.48,529c-4.91,0-9.09-1.14-12.4-3.46-17.4-12.21-21.6-60.63-12.16-89.24,13.27-40.25,25.4-70.76,36.11-97.68,6.48-16.29,12.07-30.35,16.76-43.74,8.28-23.63,10.59-64.04,10.59-67.88,0-5.38-5.01-12.2-9.43-18.22-4.83-6.58-9.01-12.26-8.49-17.48,2.6-25.89,6.52-36.41,13.14-35.96,1.89,.1,3.54,.89,4.79,2.29,3.7,4.15,3.14,13.01,2.6,21.57-.24,3.73-.59,9.37,.03,10.61,8.5,7.66,16.33,19.98,16.66,20.5,.88,1.39,.46,3.22-.92,4.1-1.4,.88-3.22,.46-4.1-.92-.08-.12-7.74-12.17-15.86-19.55-2.43-2.21-2.26-6.7-1.73-15.11,.38-5.95,.95-14.95-1.11-17.25-.19-.22-.36-.29-.66-.31-.27,.17-4.12,2.66-6.93,30.62-.29,2.95,3.78,8.49,7.37,13.37,4.96,6.76,10.59,14.41,10.59,21.73,0,4.59-2.31,45.26-10.93,69.84-4.73,13.51-10.35,27.63-16.85,43.97-10.67,26.84-22.77,57.26-35.98,97.34-9.45,28.67-4.16,72.62,9.93,82.52,10.28,7.22,34.82-2.04,62.52-23.58,36.31-28.25,94.52-82.44,95.11-82.98,1.2-1.11,3.08-1.05,4.2,.15,1.12,1.2,1.05,3.08-.15,4.2-.58,.54-59,54.91-95.51,83.32-22.81,17.75-43.03,27.22-57.19,27.22Z"/>
        <path d="M99.71,263.15c-1.25,0-2.42-.8-2.83-2.06-3.25-10.04-5.23-20.76-6.68-28.59-.63-3.41-1.17-6.36-1.7-8.58-.38-1.6,.62-3.2,2.21-3.57,1.58-.37,3.2,.61,3.57,2.21,.54,2.3,1.11,5.34,1.76,8.87,1.42,7.67,3.36,18.18,6.49,27.84,.5,1.56-.35,3.24-1.91,3.74-.3,.1-.61,.15-.92,.15Z"/>
        <path d="M87.36,378.06c-.52,0-1.04-.14-1.52-.42-1.41-.84-1.87-2.66-1.02-4.07,.26-.43,26.21-43.53,57.02-71.67,21.65-19.76,56.76-17.29,84.95-15.31,11.74,.83,21.88,1.55,29.2,.55,11.83-1.58,9.85-23.38,9.84-23.6-.16-1.63,1.04-3.08,2.67-3.24,1.58-.17,3.08,1.03,3.24,2.66,.11,1.13,2.53,27.72-14.96,30.07-7.94,1.05-18.35,.33-30.41-.52-27.08-1.91-60.76-4.28-80.53,13.78-30.17,27.54-55.68,69.91-55.93,70.33-.56,.93-1.54,1.45-2.55,1.45Z"/>
        <path d="M478.39,716.7c-1.51,0-2.81-1.16-2.96-2.7-1.71-18.22-3.64-35.84-5.51-52.87-2.91-26.46-5.65-51.46-7.1-74.74-1.98-31.65-1.66-67.49-1.38-99.12,.28-32.52,.53-60.6-1.62-77.4-4.56-35.7-17.51-44.54-33.91-55.74l-1.67-1.14c-5.94-4.07-11.96-8.01-17.83-11.85-22.39-14.65-41.72-27.31-47.57-40.62-10.16-23.13,2.21-82.28,2.74-84.79,.34-1.61,1.91-2.63,3.52-2.29,1.61,.34,2.63,1.92,2.29,3.52-.12,.6-12.5,59.78-3.12,81.16,5.14,11.7,24.69,24.5,45.39,38.04,5.9,3.86,11.96,7.83,17.93,11.92l1.66,1.13c16.22,11.07,31.55,21.53,36.45,59.89,2.2,17.2,1.96,45.47,1.67,78.21-.28,31.53-.59,67.26,1.37,98.69,1.45,23.14,4.18,48.07,7.08,74.45,1.88,17.06,3.81,34.7,5.53,52.97,.15,1.63-1.05,3.08-2.68,3.24-.09,0-.19,.01-.28,.01Z"/>
        <path d="M171.34,717.68c-.15,0-.3-.01-.45-.04-1.62-.25-2.74-1.76-2.49-3.38,.14-.92,13.9-92.39,5.69-146.37-5.48-36.02-12.69-67.38-17.95-90.27-3.65-15.87-6.28-27.34-7.03-34.4-.17-1.63,1.01-3.09,2.64-3.27,1.62-.14,3.09,1.01,3.27,2.64,.71,6.7,3.45,18.61,6.91,33.69,5.28,22.99,12.52,54.47,18.03,90.71,8.35,54.87-5.55,147.23-5.69,148.15-.22,1.47-1.49,2.53-2.93,2.53Z"/>
        <path d="M427.71,723.42c-1.61,0-2.93-1.29-2.97-2.9-1.43-60.31,2.01-108.43,4.28-140.27l.16-2.26c1.28-17.84,3.9-32.21,6.01-43.75,1.5-8.21,2.79-15.29,3.1-21.04,.86-16.19-1.76-31.87-4.3-47.03-2.78-16.62-5.41-32.31-3.27-47.28,.23-1.63,1.74-2.75,3.36-2.52,1.62,.23,2.75,1.74,2.52,3.36-2.01,14.07,.54,29.32,3.25,45.46,2.59,15.48,5.27,31.48,4.38,48.32-.33,6.13-1.66,13.39-3.19,21.8-2.08,11.4-4.67,25.59-5.93,43.11l-.16,2.26c-2.27,31.73-5.69,79.69-4.28,139.71,.04,1.64-1.26,3-2.9,3.04-.03,0-.05,0-.07,0Z"/>
        <path d="M160.76,436.85c-1.63,0-2.96-1.32-2.97-2.95-.38-62.74-48.88-86.67-49.37-86.9-1.48-.71-2.11-2.48-1.4-3.96,.71-1.48,2.47-2.11,3.95-1.41,.52,.25,52.35,25.66,52.76,92.23,0,1.64-1.31,2.98-2.96,2.99h-.02Z"/>
        <path d="M442.06,474c-1.04,0-1.63-.06-1.73-.07-1.63-.16-2.82-1.62-2.66-3.25,.17-1.63,1.63-2.87,3.24-2.66h0c.09,0,9.22,.77,21.43-5.51,1.46-.75,3.25-.17,4,1.29,.75,1.46,.17,3.25-1.29,4-10.76,5.53-19.44,6.2-22.99,6.2Z"/>
        <path d="M324.46,355.36c-.63,0-1.25,0-1.86-.03-30.69-1.02-66.13-28.79-80.67-63.23-.64-1.51,.07-3.25,1.58-3.89,1.5-.65,3.25,.06,3.89,1.58,13.71,32.48,46.83,58.66,75.39,59.61,20.08,.66,36.81-10.83,48.09-33.26,.74-1.46,2.51-2.06,3.99-1.32,1.46,.74,2.06,2.53,1.32,3.99-15.05,29.94-36.09,36.56-51.74,36.56Z"/>
        <path d="M291.5,144.93c-1.01,0-2-.51-2.55-1.44-.84-1.41-.39-3.23,1.02-4.07,12.94-7.76,23.86-1.78,24.32-1.52,1.43,.81,1.93,2.62,1.13,4.05-.8,1.42-2.6,1.93-4.03,1.14-.37-.2-8.51-4.48-18.36,1.43-.48,.29-1.01,.42-1.53,.42Z"/>
        <path d="M234.58,154.03c-.88,0-1.76-.4-2.35-1.15-1-1.3-.77-3.16,.53-4.17,8.63-6.7,20.75-3.02,21.26-2.85,1.56,.49,2.43,2.15,1.95,3.71-.49,1.57-2.16,2.43-3.71,1.96-.09-.03-9.68-2.91-15.85,1.88-.54,.42-1.18,.62-1.82,.62Z"/>
        <path d="M469.35,378.78c-.43,0-.87-.1-1.29-.3-13.87-6.69-12.22-17.82-10.76-27.64,.79-5.28,1.59-10.75,.25-15.76-1.77-6.58-7.65-13.17-12.84-18.99-4.45-4.98-8.65-9.69-10.25-14.24-3.91-11.1-1.33-21.03,1.16-30.63,2.2-8.45,4.26-16.43,1.42-24.34-2.99-8.33-7.44-13.32-11.75-18.15-7.25-8.14-14.1-15.83-10.91-36.06,4.44-28.18-5.65-63.4-17.63-85.81-15.92-29.78-44.86-54.99-72-62.73-16.84-4.79-32.36-3.2-46.13,4.76-1.42,.83-3.24,.34-4.06-1.08-.82-1.42-.33-3.24,1.08-4.06,15-8.67,32.54-10.51,50.73-5.33,29.04,8.28,58.72,34.05,75.62,65.64,11.54,21.58,23.24,57.98,18.26,89.54-2.75,17.46,2.65,23.51,9.48,31.18,4.46,5.01,9.52,10.68,12.9,20.1,3.46,9.64,1.06,18.89-1.26,27.85-2.37,9.14-4.62,17.78-1.31,27.17,1.21,3.45,5.03,7.73,9.08,12.26,5.63,6.31,12.01,13.46,14.15,21.4,1.67,6.2,.72,12.56-.11,18.17-1.57,10.62-2,16.86,7.47,21.43,1.48,.71,2.1,2.49,1.38,3.96-.51,1.06-1.57,1.68-2.67,1.68Z"/>
        <path d="M168.65,293.75c-.74,0-1.47-.27-2.04-.82-1.19-1.13-1.24-3.01-.11-4.2,9.42-9.92,7.82-17.09,6.13-24.68-1.02-4.58-2.08-9.31-.68-14.47,2.32-8.54,6.69-13.85,10.92-18.98,6.97-8.45,12.98-15.75,8.34-37.18-6.28-29.02-2.32-62.59,10.34-87.61,27.72-54.74,51.31-59.5,66.23-53.82,1.54,.58,2.31,2.3,1.72,3.83-.58,1.54-2.31,2.31-3.83,1.72-18.14-6.89-38.46,10.74-58.82,50.96-9.47,18.7-17.02,50.49-9.84,83.67,5.25,24.24-2.28,33.38-9.56,42.22-4.01,4.86-7.79,9.45-9.78,16.77-1.01,3.73-.2,7.38,.75,11.61,1.78,7.95,3.99,17.85-7.61,30.06-.58,.62-1.37,.93-2.16,.93Z"/>
        <path d="M252.26,95.77c-.12,0-.24,0-.37-.02-1.62-.2-2.79-1.68-2.59-3.31,1.46-12,10.02-21.08,17.83-24.75,1.49-.69,3.25-.06,3.95,1.43,.7,1.48,.05,3.25-1.43,3.95-6.14,2.88-13.28,10.39-14.46,20.09-.18,1.51-1.47,2.61-2.95,2.61Z"/>
        <path d="M362.6,205.94c-1.45,0-2.71-1.06-2.93-2.53-.25-1.62,.87-3.14,2.49-3.38,.13-.02,13.07-2.3,16.31-14.54,1.53-5.8,.37-11.41-3.04-14.63-2.96-2.81-7.35-3.48-12.36-1.86-1.55,.51-3.24-.36-3.74-1.91-.5-1.56,.35-3.24,1.91-3.74,7.06-2.27,13.71-1.11,18.27,3.21,4.98,4.72,6.77,12.56,4.69,20.46-4.28,16.17-21,18.87-21.17,18.89-.15,.02-.3,.03-.45,.03Z"/>
        <path d="M364.37,189.49c-.6,0-1.21-.18-1.73-.56-1.34-.95-1.64-2.81-.68-4.14l3.39-4.72c.95-1.33,2.82-1.64,4.15-.68,1.33,.96,1.64,2.81,.68,4.14l-3.39,4.72c-.58,.81-1.49,1.24-2.42,1.24Z"/>
        <path d="M275.68,208.7c-.72,0-1.45-.26-2.02-.79-4.11-3.81-5.99-6.83-6.09-9.78-.11-3.25,1.93-5.41,3.73-7.31,1.62-1.72,3.16-3.34,3.48-5.84,.75-5.78-4.59-15.75-6.7-19.11-.87-1.39-.46-3.22,.93-4.1,1.39-.88,3.22-.46,4.1,.93,.9,1.42,8.72,14.12,7.57,23.04-.57,4.41-3.16,7.16-5.05,9.16-1.33,1.4-2.13,2.31-2.11,3.03,.02,.54,.46,2.16,4.19,5.62,1.21,1.12,1.28,2.99,.16,4.2-.58,.63-1.38,.95-2.18,.95Z"/>
        <g>
          <path class="cls-3" d="M284.94,221.81c10.77-1.34,22.3-4.93,22.3-4.93,0,0-2.53,19.04-15.7,23.65-16.17,5.66-27.36-18.29-27.36-18.29,0,0,10,.91,20.76-.43Z"/>
          <path d="M286.48,244.4c-15.04,0-24.55-19.94-25-20.89-.45-.96-.35-2.09,.26-2.96,.61-.87,1.63-1.34,2.7-1.25,.09,0,9.82,.86,20.13-.42,10.37-1.29,21.67-4.78,21.78-4.82,.97-.3,2.02-.08,2.8,.56,.78,.65,1.17,1.66,1.03,2.66-.11,.85-2.94,20.91-17.66,26.06-2.1,.73-4.11,1.06-6.03,1.06Zm-17.06-18.91c3.85,6.02,11.69,15.56,21.13,12.24,7.56-2.64,11.14-11.21,12.7-16.62-4.44,1.19-11.29,2.83-17.95,3.66h0c-6.07,.76-11.85,.81-15.88,.72Zm15.51-3.67h0Z"/>
        </g>
        <path class="cls-4" d="M313.6,169.63c-.75-4.22-4.05-7.17-7.38-6.58-3.32,.59-5.41,4.49-4.66,8.71,.75,4.22,4.05,7.17,7.37,6.58,3.33-.59,5.42-4.49,4.67-8.71Z"/>
        <path class="cls-4" d="M258.11,176.94c-.74-4.22-4.05-7.16-7.37-6.58-3.33,.59-5.42,4.49-4.67,8.72,.75,4.22,4.05,7.17,7.38,6.58,3.32-.59,5.41-4.49,4.66-8.72Z"/>
        <path d="M293.37,275.64c-14.13,0-28.67-11.55-36.36-18.77-13.22-12.39-21.22-27.77-23.27-37.51-1.85-8.75-2.7-13.63-3.6-18.8-.58-3.27-1.17-6.71-2.08-11.41-.79-4.15-2.03-8.16-3.34-12.41-2.19-7.11-4.45-14.45-5.13-23.68-.12-1.64,1.11-3.06,2.75-3.18,1.61-.09,3.06,1.11,3.18,2.75,.62,8.55,2.79,15.57,4.88,22.36,1.36,4.41,2.65,8.58,3.5,13.05,.91,4.73,1.51,8.2,2.09,11.5,.89,5.11,1.74,9.95,3.56,18.59,1.8,8.54,9.31,22.96,21.52,34.4,12.71,11.91,25.25,18.11,34.49,17.04,9.97-1.17,25.21-9.43,37.05-20.08,2.71-2.44,5.85-6.11,9.07-10.61,.95-1.33,2.81-1.64,4.14-.69,1.33,.96,1.64,2.81,.69,4.15-3.51,4.91-6.85,8.8-9.92,11.57-12.87,11.58-29.07,20.24-40.32,21.56-.96,.11-1.92,.17-2.89,.17Z"/>
        <path class="cls-4" d="M270.97,265.72s18.09,10.49,36.31,5.86c18.21-4.62,34.34-25.66,34.34-25.66,0,0-13.33,26.58-31.06,37.84-17.33,11.01-42.4-4.21-42.4-4.21l2.81-13.82Z"/>
        <path d="M341.38,165.63c-21.06,0-35.36-23.16-44.69-41.82-7.15-14.31-15.29-22.79-22.31-23.28-4.53-.26-8.97,2.69-13.25,8.93-.93,1.35-2.78,1.71-4.13,.77-1.35-.93-1.7-2.78-.77-4.13,5.56-8.09,11.79-11.97,18.56-11.49,11.93,.83,21.39,14.89,27.21,26.55,15.59,31.17,30.84,42.93,47.99,37,1.55-.54,3.25,.29,3.78,1.84,.54,1.55-.29,3.24-1.83,3.78-3.69,1.28-7.21,1.86-10.55,1.86Z"/>
        <path d="M220.86,210.08c-.87,0-1.73-.38-2.32-1.11-13.49-16.78-4.57-44.46,3.3-63.83,2.5-6.15,11.73-24.86,21-29.93,1.45-.79,3.24-.25,4.03,1.18,.79,1.44,.26,3.24-1.18,4.03-6.48,3.54-14.77,18.18-18.34,26.95-11.46,28.17-12.83,47.1-4.18,57.87,1.03,1.28,.83,3.15-.46,4.18-.55,.44-1.2,.66-1.86,.66Z"/>
      </g>
    </g>
  </g>
</svg>