<?xml version="1.0" encoding="UTF-8"?>
<svg id="Layer_2" data-name="Layer 2" xmlns="http://www.w3.org/2000/svg" viewBox="0 0 457.84 688.38">
  <defs>
    <style>
      .cls-1 {
        fill: #ffddc0;
      }

      .cls-1, .cls-2, .cls-3, .cls-4, .cls-5, .cls-6 {
        fill-rule: evenodd;
      }

      .cls-2 {
        fill: #fba89f;
      }

      .cls-3 {
        fill: #fff;
      }

      .cls-4 {
        fill: #e4f5ff;
      }

      .cls-5 {
        fill: #ef7a6c;
      }
    </style>
  </defs>
  <g id="_Layer_" data-name="&amp;lt;Layer&amp;gt;">
    <g>
      <path class="cls-2" d="M169.34,30.12c8.88-9.1,24.59-12.35,42.44-17.53,6.91-2.01,12.89-7.05,20.4-8.68,53.38-11.58,100.67,56.7,100.67,56.7,0,0,12.42,22.13,16.86,38.73,0,0,2.7,26.94,2.69,27.17-.18,4.4-2.59,27.07-.75,36.32,.54,2.71,2,7.62,4.9,10.67,5.8,6.09,15.23,11.61,19.73,25.31,3.74,11.41-3.2,41.53-.33,54.41,1.92,8.6,14.57,20.9,18.29,26.71,8.72,13.61,4.29,25.49,4.29,25.49l-49.26-19.59-177.68-14.58-24.76,11.25-39.84-37.94s-5.89-26.36-1.87-43.4c1.4-5.91,22.63-25.94,24.9-32.66,2.98-8.82-3.89-37.14-1.09-52.02,8.78-46.69,31-76.71,40.42-86.35Z"/>
      <path class="cls-3" d="M34.1,388.48s10.08-38.25,20.46-58.17c10.38-19.92,21.04-21.53,21.04-21.53l68.48-25.67,18.5-7.72,137.21,12.52,62.41,2.64s35.63,6.95,51.25,29.31c8.55,12.22,10.45,29.17,14.24,45.47,5.04,21.66,10.46,41.57,10.46,41.57l-8.07,5.37-52.5,74.36s-9.56,17.05-12.75,65.6c-3.19,48.56,0,128.61,0,128.61,0,0-59.46,7.54-123.66,7.54s-133.13-7.54-133.13-7.54c0,0,3.81-78.45,.29-137.15-1.88-31.37-10.07-49.07-13.36-66.22-2.87-14.95-1-31.43-1-31.43l-59.91-57.55Z"/>
      <path class="cls-1" d="M168.58,85.28c16.13-17.58,43.04-23.47,60.35-16.99,10.7,4,15.35,24.5,22.52,38.42,4.84,9.39,11.7,16.65,19.56,23.94,10.3,9.56,36.12-2.02,44.16,7.33,5.14,5.98,2.87,19.46-1.31,26.01-3.9,6.13-9.41,5.36-13.54,9.72-3.42,3.61-4.53,10.59-4.53,10.59l11.64,13.81,8.91,10.18s10.79,24.74,19.7,40.57c8.91,15.83,15.94,22.77,15.94,22.77,0,0,17.95,40.15,37.51,75.35,19.56,35.19,40.72,65.43,40.72,65.43l8.03-4.65s22.4,63.58,15.59,99.64c-3.32,17.59-12.17,35.48-36.71,23.03-4.77-2.42-16.18-10.19-24.02-19.22-11.79-13.57-20.57-31.36-26.92-49.05-20.4-56.9-23.85-129.4-61.61-169.03-2.28-2.39-3.49-4.17-3.49-4.17,0,0-31.22,25.87-65.85,22.58-20.68-1.96-42.97-11.75-57.26-21.38-9.64-6.51-15.43-14.35-15.43-14.35,0,0,20.32-7.14,28.55-19.42,8.24-12.27,4.38-29.69,4.38-29.69l-19.08-22.2s-2.3,4.47-5.58,14.15c-4.73,13.93-11.8,36.37-19.43,52.46-4.94,10.4-15.97,21.01-20.34,27.72-2.3,3.53-8.1,17.18-13.23,37.61-10.64,42.39-22.44,105.12-22.44,105.12,0,0-4.44,21.07-15.29,41.99-10.92,21.06-28.28,41.99-37.93,47.51-10.14,5.8-20.87,6.72-27.03-2.88-9.35-14.6-13.81-38.19-12.07-60.32,1.8-22.81,31.78-74.03,55.88-119.65,18.92-35.82,30.51-69.91,30.51-69.91l16.49-31.32,19.68-43.38,15.52-17.55,15.49-33.96,7.38-12.66s-11.12-37,4.59-54.13Z"/>
      <path class="cls-4" d="M246.3,168.31s-6.18-5.96-1.22-14.65c4.96-8.69,13.08-4.01,13.08-4.01,0,0,2.82-7.67,8.37-7.67,5.11,0,7.61,5.38,7.61,5.38l-3.14,2.52-3.5,7.43s-2.88-.48-5.42,.49c-4.76,1.82,2.82,27.81,2.82,27.81,0,0-5.49-.28-4.69,5.12,.92,6.21,7.94,18.21,4.34,18.21-1.49,0-7.62,1.12-11.96-3.08-4.34-4.2-4.26-12.43-4.26-12.43,0,0-7.11-1.66-9.36-10.78-2.22-8.99,7.33-14.34,7.33-14.34Z"/>
      <path class="cls-4" d="M192.46,169.32s3.49-5.68-.68-12.98c-4.17-7.3-13.01-2.89-13.01-2.89,0,0-2.43,2.51-.29,3.32,4,1.53-2.31,21.25-2.31,21.25,0,0,4.71,1.68,4.04,6.22-.77,5.21-6.12,19.23-3.09,19.23,1.25,0,6.4,.94,10.05-2.59,3.65-3.52,3.31-9.26,3.31-9.26,0,0,5.63-1.88,7.51-9.54,1.87-7.55-5.53-12.75-5.53-12.75Z"/>
      <path class="cls-5" d="M161.46,125.31c0-1.97,1.47-3.56,3.28-3.56s3.28,1.6,3.28,3.56-1.47,3.55-3.28,3.55-3.28-1.59-3.28-3.55Z"/>
      <path class="cls-5" d="M220.75,136.24c0-1.5,1.09-2.72,2.44-2.72s2.43,1.22,2.43,2.72-1.09,2.71-2.43,2.71-2.44-1.22-2.44-2.71Z"/>
      <path class="cls-5" d="M190.06,218.05c0-2.16,1.75-3.91,3.91-3.91s3.91,1.75,3.91,3.91-1.75,3.91-3.91,3.91-3.91-1.75-3.91-3.91Z"/>
      <path class="cls-5" d="M204.83,86.72c0-1.86,1.43-3.37,3.18-3.37s3.19,1.51,3.19,3.37-1.43,3.37-3.19,3.37-3.18-1.51-3.18-3.37Z"/>
      <path class="cls-5" d="M214.56,93.5c0-1.4,1.17-2.53,2.62-2.53s2.62,1.13,2.62,2.53-1.17,2.53-2.62,2.53-2.62-1.13-2.62-2.53Z"/>
      <path class="cls-5" d="M237.88,202.86c0-1.39,1.17-2.53,2.62-2.53s2.62,1.13,2.62,2.53-1.17,2.53-2.62,2.53-2.62-1.13-2.62-2.53Z"/>
      <path class="cls-4" d="M280.23,150.82c-.34-4.14,9.2-3.04,11.47-.77,2.36,2.36,2.16,6.17,1.2,9.07-.12,.37-1.46,2.55-1.37,2.74,.8,1.6,3.22,.96,3.59,3.94,.42,3.36-3.22,10.17-6.85,5.82-4.42-5.31-7.49-14.05-8.05-20.8Z"/>
      <path d="M384.71,502.21c-.95,0-1.88-.46-2.46-1.3-4.83-7.11-9.16-15.27-14.02-26.46-9.91-22.81-16.35-49.09-22.57-74.5-6.34-25.87-12.89-52.62-23.07-75.45-5.41-12.13-12.02-19.98-18.42-27.58-5.43-6.44-10.55-12.54-14.53-20.68-8.79-18-12.35-26.78-17.29-42.67-.41-1.31-1.69-4.4-3.17-7.97-10.24-24.68-14.22-37.12-9.18-41.09,1.33-1.04,2.9-1.42,4.53-1.1,5.03,1,9.64,8.61,16.63,21.02,1.8,3.2,3.57,6.35,5.26,9.08,7.23,11.69,12.52,25.39,12.74,25.97,.59,1.53-.18,3.25-1.71,3.83-1.53,.58-3.25-.18-3.84-1.71-.05-.13-5.31-13.77-12.24-24.97-1.73-2.79-3.55-6.02-5.39-9.29-3.32-5.9-9.39-16.67-12.24-17.99-1.14,4.89,7.89,26.65,10.92,33.96,1.66,4.01,2.87,6.91,3.35,8.48,4.84,15.54,8.32,24.14,16.96,41.83,3.66,7.48,8.55,13.3,13.74,19.46,6.35,7.54,13.55,16.09,19.3,28.98,10.4,23.33,17.02,50.34,23.41,76.46,6.17,25.17,12.54,51.19,22.25,73.54,4.71,10.83,8.87,18.69,13.48,25.48,.92,1.36,.57,3.2-.79,4.12-.51,.35-1.09,.52-1.67,.52Z"/>
      <path d="M306.95,237.73c-1.16,0-2.26-.69-2.74-1.82-.13-.32-13.35-31.72-23.54-48.28-3.63-5.9-6.42-11.4-8.67-15.82-2.81-5.54-5.97-11.87-7.61-11.41-.05,.01-.17,.04-.35,.39-1.65,3.17,.08,13.41,4.03,23.82,.58,1.54-.19,3.25-1.73,3.83-1.54,.58-3.25-.19-3.83-1.73-1.31-3.47-7.67-21.14-3.74-28.67,.93-1.77,2.37-2.95,4.17-3.41,6.24-1.55,9.45,4.82,14.36,14.48,2.31,4.55,4.94,9.7,8.44,15.39,10.43,16.95,23.41,47.79,23.95,49.09,.63,1.51-.08,3.26-1.59,3.89-.37,.16-.77,.23-1.15,.23Z"/>
      <path d="M316.25,233.1c-1.14,0-2.24-.67-2.72-1.78-.16-.36-15.78-35.99-25.28-52.99-3.37-6.03-5.93-11.64-7.99-16.14-2.57-5.63-5.37-12.02-7.09-11.67-.76,.24-2.95,2.98-1.3,9.01,.43,1.58-.5,3.22-2.08,3.65-1.58,.44-3.22-.5-3.65-2.08-1.82-6.63-.16-10.78,.99-12.66,1.2-1.98,2.96-3.34,4.81-3.73,6.28-1.3,9.23,5.18,13.72,15.02,2.12,4.63,4.51,9.89,7.77,15.71,9.64,17.25,24.89,52.03,25.53,53.5,.66,1.5-.03,3.25-1.53,3.91-.39,.17-.79,.25-1.19,.25Z"/>
      <path d="M432.31,538.02c-12.72,0-28.14-11.58-39.38-23.76-5.99-6.5-10.6-13.1-15.68-21.01-.89-1.38-.49-3.22,.89-4.11,1.39-.89,3.22-.49,4.1,.89,4.91,7.65,9.35,14.02,15.05,20.2,14.91,16.16,30.32,24.47,39.24,21.13,3.96-1.48,7.85-6.61,10.65-14.09,7.47-19.9,7.1-54.6-10.57-87.27-6.52-12.05-14.13-23.49-22.2-35.6-11.64-17.48-24.84-37.3-37.37-63.15-5.28-10.88-9.56-20.02-13.15-27.67-7.34-15.64-11.77-25.09-15.72-30.42-10.85-14.67-20.44-34.29-27.44-48.62-1.4-2.87-2.72-5.57-3.95-8.02-4.3-8.61-8.78-13.41-13.96-18.96-3.31-3.55-6.73-7.22-10.4-12.2-.98-1.32-.69-3.18,.62-4.15,1.32-.97,3.18-.69,4.15,.62,3.48,4.71,6.78,8.25,9.97,11.68,5.26,5.65,10.24,10.98,14.93,20.36,1.23,2.47,2.56,5.18,3.97,8.07,6.9,14.12,16.35,33.46,26.87,47.69,4.3,5.81,8.83,15.46,16.32,31.44,3.58,7.64,7.85,16.75,13.12,27.6,12.35,25.49,25.43,45.12,36.97,62.45,8.14,12.22,15.83,23.77,22.48,36.06,18.56,34.32,18.85,71.03,10.9,92.19-3.46,9.22-8.48,15.46-14.14,17.57-2,.74-4.11,1.09-6.3,1.09Z"/>
      <path d="M108.21,683.9s-.1,0-.14,0c-1.64-.08-2.91-1.47-2.83-3.11,2.54-53.56,2.65-101.09,.31-133.82-1.52-21.27-5.85-38.05-9.33-51.54-2.24-8.67-4.17-16.17-4.78-22.67-1-10.69-.52-18.88,.71-30.26,.17-1.63,1.67-2.75,3.27-2.63,1.63,.18,2.81,1.64,2.63,3.28-1.19,10.99-1.65,18.88-.7,29.07,.57,6.04,2.44,13.31,4.62,21.74,3.54,13.71,7.95,30.79,9.5,52.6,2.36,32.96,2.25,80.74-.3,134.53-.08,1.59-1.39,2.83-2.97,2.83Z"/>
      <path d="M365.91,684.44c-1.58,0-2.89-1.24-2.97-2.83-2.55-53.79-2.66-101.56-.3-134.53,1.61-22.57,5.85-39.42,9.25-52.96,.67-2.68,1.32-5.24,1.91-7.71,.38-1.59,1.98-2.59,3.58-2.2,1.6,.38,2.58,1.98,2.2,3.58-.6,2.49-1.25,5.07-1.93,7.78-3.35,13.31-7.51,29.88-9.09,51.93-2.34,32.75-2.23,80.27,.31,133.82,.08,1.64-1.19,3.03-2.83,3.11-.05,0-.1,0-.14,0Z"/>
      <path d="M143.72,286.36c-1.2,0-2.34-.74-2.78-1.93-.57-1.54,.21-3.25,1.74-3.82,18.12-6.76,31.24-13.37,41.28-20.78,8.1-5.99,10.58-15.76,8.29-32.67-.22-1.62,.92-3.12,2.54-3.34,1.63-.21,3.12,.92,3.34,2.55,2.59,19.09-.69,30.89-10.65,38.24-10.49,7.76-24.07,14.62-42.73,21.58-.34,.12-.69,.19-1.04,.19Z"/>
      <path d="M18.89,424.92c-.42,0-.85-.09-1.25-.28-1.49-.69-2.13-2.46-1.43-3.95,12.15-26.02,19.06-46.66,24.61-63.24,4.57-13.63,8.17-24.4,12.92-32.55,5.72-9.83,16.06-16.73,21.71-19.97,1.42-.82,3.24-.33,4.05,1.1,.82,1.42,.32,3.24-1.1,4.05-8.74,5.02-15.86,11.51-19.53,17.81-4.44,7.62-7.96,18.14-12.42,31.45-5.6,16.72-12.57,37.53-24.86,63.87-.5,1.08-1.58,1.71-2.69,1.71Z"/>
      <path d="M454.85,496.52h-.05c-1.64-.03-2.95-1.38-2.92-3.02,.45-28.42-6.52-52.36-13.9-77.7-2.11-7.24-4.26-14.62-6.3-22.3-2.35-8.85-4.34-17.35-6.27-25.58-5.1-21.77-9.5-40.57-17.18-49.4-10.91-12.54-29.33-19.82-47.6-25.83-1.56-.51-2.41-2.19-1.9-3.75,.51-1.56,2.18-2.41,3.75-1.89,19.08,6.27,38.37,13.94,50.23,27.57,8.65,9.94,12.99,28.48,18.49,51.95,1.91,8.18,3.9,16.64,6.23,25.4,2.03,7.63,4.16,14.96,6.26,22.16,7.51,25.78,14.6,50.14,14.14,79.46-.02,1.62-1.35,2.92-2.97,2.92Z"/>
      <path d="M431.39,415.06c-1.02,0-2.01-.53-2.56-1.47-.83-1.41-.36-3.24,1.06-4.07,2.14-1.25,3.98-2.46,5.47-3.57,1.32-.98,3.18-.72,4.16,.59,.98,1.31,.72,3.17-.59,4.16-1.67,1.25-3.7,2.58-6.03,3.95-.47,.28-.99,.41-1.5,.41Z"/>
      <path d="M241.37,314.25c-34.33,0-65.68-18.21-79.63-34.37-1.07-1.24-.93-3.12,.31-4.19,1.24-1.07,3.11-.93,4.19,.31,20.82,24.12,82.85,53.12,131.83,10.85,1.25-1.07,3.12-.93,4.19,.31,1.07,1.24,.93,3.12-.31,4.19-19.27,16.63-40.44,22.9-60.58,22.9Z"/>
      <path d="M300.42,176.54c-1.27,0-2.44-.81-2.83-2.08-.49-1.57,.38-3.23,1.95-3.72,8.83-2.76,14.02-8.11,16.32-16.83,1.58-5.98,.41-11.49-3.14-14.75-3.16-2.89-7.83-3.52-12.83-1.72-1.54,.56-3.24-.24-3.8-1.79-.56-1.54,.24-3.25,1.79-3.8,7.14-2.58,14.01-1.51,18.86,2.93,5.21,4.77,7.03,12.49,4.87,20.65-2.8,10.58-9.62,17.64-20.29,20.98-.3,.09-.6,.14-.89,.14Z"/>
      <path d="M300.57,159.48c-.48,0-.98-.12-1.43-.37-1.43-.79-1.96-2.59-1.17-4.02,.09-.17,2.26-4.09,5.92-6.8,1.32-.98,3.18-.7,4.15,.62,.98,1.32,.7,3.18-.62,4.16-2.58,1.92-4.24,4.86-4.25,4.89-.54,.98-1.56,1.53-2.6,1.53Z"/>
      <path d="M163.88,142.28c-1.44,0-2.7-1.04-2.93-2.5-.18-1.16-.44-2.41-.73-3.83-.87-4.28-2.06-10.15-2.57-19.01-.9-15.57,5.6-41.92,26.89-46.32,1.6-.32,3.18,.7,3.51,2.31,.33,1.61-.7,3.18-2.31,3.51-18.28,3.78-22.82,28.69-22.16,40.15,.49,8.44,1.63,14.07,2.46,18.18,.31,1.51,.58,2.85,.77,4.07,.26,1.62-.85,3.14-2.47,3.4-.16,.02-.32,.04-.47,.04Z"/>
      <path d="M222.22,242.99c-.33,0-.63-.01-.91-.03-10.35-.74-24.97-10.22-36.39-23.6-4.76-5.57-8.53-10.73-11.52-15.8-.83-1.41-.37-3.23,1.05-4.07,1.41-.83,3.23-.37,4.07,1.05,2.82,4.76,6.39,9.66,10.92,14.96,10.29,12.05,23.57,20.9,32.3,21.52,6.41,.51,33.65-6.91,45.8-19.82,1.12-1.19,3-1.25,4.2-.13,1.2,1.12,1.25,3,.13,4.2-12.46,13.25-40.2,21.71-49.64,21.71Z"/>
      <path d="M212.35,172.09c-.79,0-1.57-.31-2.16-.93-3.91-4.13-5.61-7.32-5.51-10.34,.11-3.33,2.35-5.41,4.32-7.25,1.74-1.62,3.38-3.14,3.89-5.53,1.22-5.75-2.64-14.68-4.23-17.64-.78-1.44-.24-3.24,1.21-4.02,1.45-.79,3.24-.24,4.02,1.2,.28,.51,6.75,12.62,4.81,21.7-.9,4.23-3.65,6.78-5.65,8.65-1.49,1.39-2.4,2.29-2.43,3.09-.02,.71,.45,2.43,3.89,6.06,1.13,1.19,1.08,3.07-.12,4.2-.58,.54-1.31,.81-2.04,.81Z"/>
      <path d="M258.45,114.85c-.6,0-1.2-.18-1.73-.56h0c-.4-.28-9.89-6.87-21.57-1.96-1.52,.63-3.25-.08-3.89-1.59-.64-1.51,.07-3.25,1.59-3.89,14.81-6.23,26.84,2.25,27.34,2.62,1.33,.96,1.63,2.82,.67,4.15-.58,.81-1.49,1.23-2.41,1.23Z"/>
      <path d="M196.63,114.41c-.43,0-.86-.09-1.27-.29-9.64-4.59-16.41-.49-16.7-.31-1.39,.87-3.22,.45-4.09-.93-.87-1.38-.48-3.19,.89-4.08,.39-.25,9.72-6.11,22.45-.05,1.48,.71,2.11,2.48,1.41,3.96-.51,1.07-1.57,1.69-2.68,1.7Z"/>
      <path class="cls-6" d="M253.18,136.56c-.43-4.33-3.55-7.55-6.96-7.21-3.4,.34-5.81,4.13-5.38,8.45,.44,4.32,3.55,7.55,6.96,7.21,3.41-.34,5.81-4.13,5.38-8.45Z"/>
      <path class="cls-6" d="M195.23,136.58c-.44-4.33-3.55-7.56-6.96-7.22-3.41,.35-5.82,4.13-5.38,8.46,.44,4.33,3.55,7.56,6.96,7.21,3.41-.34,5.82-4.13,5.38-8.45Z"/>
      <g>
        <path class="cls-3" d="M216.45,185.81c11.47-.13,22.77-2.14,22.77-2.14,0,0-6.11,22.7-21.89,22.18-16.85-.56-22.09-21.14-22.09-21.14,0,0,9.73,1.23,21.21,1.1Z"/>
        <path d="M217.88,208.83c-.22,0-.43,0-.65-.01-18.86-.63-24.63-22.45-24.87-23.37-.24-.95,0-1.96,.65-2.7,.65-.74,1.62-1.1,2.6-.98,.1,.01,9.71,1.24,20.8,1.08,11.08-.13,22.17-2.08,22.28-2.1,.99-.16,2.02,.16,2.71,.92,.69,.75,.94,1.8,.68,2.78-.27,1.01-6.77,24.38-24.2,24.39Zm-18.25-20.69c2.38,5.47,7.79,14.41,17.79,14.74,9.23,.25,14.84-9.55,17.33-15.53-4.44,.6-11.28,1.35-18.27,1.43h0c-6.75,.08-12.86-.31-16.85-.65Zm16.82-2.32h0Z"/>
      </g>
      <path class="cls-6" d="M196.46,228.85s13.29,10.92,25.73,13.51c12.99,2.7,46.61-19.78,46.61-19.78,0,0-16.04,23.1-37.05,32.19-17.12,7.4-36.13-5.48-36.13-5.48l.83-20.44Z"/>
      <path d="M73.72,499.21c-.48,0-.96-.12-1.41-.36-1.44-.78-1.98-2.58-1.2-4.03,10.95-20.26,19.26-42.84,25.38-69.04,3.68-15.72,6.63-31.96,9.49-47.68,4.01-22.04,7.79-42.87,13.08-59.48,5.6-17.61,13.16-26.47,19.83-34.29,4.6-5.4,8.58-10.06,11.47-16.91,7.6-18.02,10.59-26.75,14.53-42.46,.4-1.59,1.44-4.53,2.87-8.6,2.61-7.42,10.38-29.52,8.97-34.31-2.77,1.45-8.22,12.5-11.2,18.55-1.65,3.35-3.28,6.65-4.85,9.53-6.28,11.5-10.75,25.33-10.79,25.47-.5,1.57-2.18,2.41-3.74,1.92-1.56-.5-2.42-2.17-1.92-3.74,.19-.59,4.68-14.49,11.24-26.5,1.53-2.81,3.12-6.03,4.73-9.3,6.27-12.72,10.43-20.53,15.39-21.81,1.62-.42,3.21-.13,4.59,.83,5.27,3.66,2.01,16.24-6.81,41.33-1.27,3.63-2.38,6.76-2.71,8.08-4.03,16.07-7.08,24.97-14.82,43.33-3.25,7.69-7.71,12.92-12.43,18.45-6.61,7.75-13.45,15.77-18.69,32.24-5.17,16.25-8.92,36.89-12.9,58.74-2.87,15.79-5.84,32.11-9.55,47.97-6.25,26.71-14.73,49.78-25.94,70.51-.54,.99-1.56,1.56-2.62,1.56Z"/>
      <path d="M136.18,232.52c-.33,0-.67-.06-1-.17-1.54-.55-2.35-2.25-1.8-3.79,.47-1.33,11.67-32.67,21.11-50.08,3.17-5.85,5.49-11.11,7.54-15.76,4.36-9.87,7.24-16.36,13.5-15.19,1.83,.35,3.34,1.45,4.37,3.17,4.34,7.27-.99,25.16-2.1,28.67-.49,1.56-2.15,2.44-3.73,1.93-1.56-.5-2.43-2.16-1.93-3.73,3.34-10.54,4.48-20.79,2.66-23.83-.2-.34-.32-.36-.38-.37-1.55-.4-4.45,6.09-6.95,11.75-1.99,4.51-4.47,10.13-7.76,16.2-9.23,17.01-20.63,48.92-20.74,49.24-.43,1.22-1.58,1.98-2.8,1.98Z"/>
      <path d="M126.64,228.45c-.35,0-.7-.06-1.04-.19-1.54-.58-2.32-2.29-1.74-3.82,.56-1.5,13.8-36.88,22.44-54.55,2.91-5.96,5-11.3,6.85-16.02,3.93-10.03,6.54-16.67,12.84-15.69,1.87,.28,3.71,1.54,5.03,3.45,1.25,1.81,3.13,5.84,1.7,12.51-.35,1.6-1.92,2.63-3.53,2.28-1.6-.35-2.63-1.93-2.28-3.53,1.3-6.07-1.04-8.65-1.82-8.84-1.64-.32-4.17,6.25-6.41,11.99-1.79,4.58-4.03,10.29-7.04,16.47-8.51,17.41-22.07,53.65-22.21,54.02-.45,1.19-1.58,1.93-2.78,1.93Z"/>
      <path d="M27.35,537.69c-1.83,0-3.62-.25-5.34-.78-5.8-1.78-11.19-7.74-15.19-16.77-9.08-20.56-10.85-56.97,5.68-91.99,5.94-12.58,12.96-24.47,20.39-37.07,10.53-17.84,22.46-38.07,33.33-64.06,4.62-11.05,8.36-20.31,11.49-28.08,6.58-16.32,10.56-26.17,14.52-32.19,9.7-14.73,18.04-34.46,24.12-48.88,1.24-2.94,2.41-5.69,3.49-8.2,4.15-9.58,8.81-15.15,13.75-21.06,2.99-3.58,6.08-7.28,9.28-12.14,.9-1.37,2.74-1.75,4.11-.85,1.37,.9,1.75,2.74,.85,4.11-3.39,5.15-6.59,8.98-9.68,12.69-4.85,5.81-9.05,10.82-12.85,19.61-1.08,2.49-2.24,5.23-3.47,8.15-6.17,14.62-14.63,34.65-24.63,49.83-3.64,5.53-7.53,15.17-13.98,31.15-3.14,7.79-6.89,17.08-11.52,28.15-11.03,26.37-23.07,46.78-33.7,64.79-7.36,12.47-14.31,24.26-20.13,36.59-15.72,33.32-14.15,67.73-5.62,87.05,3.24,7.33,7.43,12.25,11.5,13.5,15.02,4.6,42.01-23.29,50.94-43.28,.67-1.49,2.43-2.16,3.92-1.5,1.5,.67,2.17,2.43,1.5,3.93-8.16,18.27-33.01,47.31-52.77,47.31Z"/>
      <path d="M280.55,133.5c-13.12,0-24.28-8.15-31.71-23.62-2.95-6.14-5.45-12.88-7.87-19.41-5.28-14.25-10.27-27.71-18.06-29.88-3.91-1.09-8.7,.67-14.64,5.38-1.28,1.02-3.15,.81-4.17-.48-1.02-1.28-.81-3.15,.48-4.17,7.53-5.99,14.05-8.1,19.93-6.46,10.71,2.99,16.21,17.83,22.04,33.54,2.37,6.4,4.82,13.01,7.65,18.9,6.04,12.58,17.55,25.9,38.04,17.86,1.53-.6,3.25,.15,3.85,1.68,.6,1.53-.15,3.25-1.68,3.85-4.79,1.88-9.44,2.81-13.86,2.81Z"/>
      <path d="M399.56,308.03c-.23,0-.47-.03-.71-.09-1.59-.39-2.57-2-2.18-3.59,3.38-13.73-2.27-19.94-9.44-27.81-4.57-5.02-9.75-10.71-12.66-18.97-3.84-10.92-2.3-21.72-.82-32.16,1.34-9.44,2.61-18.35-.29-26.44-3.1-8.64-8.22-13.04-13.17-17.29-7.52-6.47-15.3-13.16-12.17-32.98,4.18-26.48-.41-53.96-12.92-77.36-15.92-29.78-44.86-54.99-72.01-62.73-16.84-4.8-32.36-3.2-46.13,4.75-1.42,.83-3.24,.34-4.06-1.08-.82-1.42-.34-3.24,1.08-4.06,14.99-8.67,32.53-10.51,50.73-5.33,29.04,8.28,58.73,34.05,75.62,65.64,13.12,24.54,17.93,53.34,13.55,81.09-2.61,16.55,2.75,21.16,10.18,27.55,5.27,4.53,11.26,9.68,14.88,19.79,3.4,9.48,1.97,19.55,.58,29.29-1.39,9.74-2.82,19.81,.54,29.36,2.51,7.12,7.05,12.11,11.45,16.94,7.35,8.07,14.95,16.42,10.81,33.23-.33,1.36-1.55,2.26-2.88,2.26Z"/>
      <path d="M106.86,248.27c-1.53,0-2.83-1.17-2.96-2.72-.31-3.56-.85-7.34-1.42-11.34-1.63-11.42-3.32-23.24-.04-32.88,3.56-10.46,9.43-15.79,14.61-20.5,7.06-6.41,12.64-11.48,10.06-28.79-4.3-28.76,.43-58.62,13.31-84.08,25.07-49.52,53.15-59.89,71.05-53.08,1.53,.58,2.31,2.3,1.72,3.83-.58,1.54-2.29,2.31-3.83,1.72-15.49-5.88-40.34,4.21-63.64,50.21-12.34,24.36-16.86,52.96-12.74,80.51,3.06,20.46-4.23,27.07-11.94,34.07-4.88,4.43-9.92,9.01-12.98,18.01-2.82,8.3-1.24,19.4,.3,30.12,.58,4.09,1.14,7.95,1.45,11.67,.14,1.64-1.07,3.07-2.71,3.21-.08,0-.17,.01-.25,.01Z"/>
      <path d="M194.03,55.8c-.18,0-.35-.01-.53-.05-1.61-.29-2.69-1.83-2.4-3.45,2.19-12.19,6.91-19.17,15.77-23.32,1.49-.69,3.26-.05,3.95,1.43,.7,1.49,.06,3.26-1.43,3.95-7,3.28-10.6,8.78-12.44,18.99-.26,1.44-1.51,2.44-2.92,2.44Z"/>
    </g>
  </g>
</svg>