<?xml version="1.0" encoding="UTF-8"?>
<svg id="Layer_2" data-name="Layer 2" xmlns="http://www.w3.org/2000/svg" viewBox="0 0 483.26 692.4">
  <defs>
    <style>
      .cls-1 {
        fill: #ffddc0;
      }

      .cls-1, .cls-2, .cls-3, .cls-4, .cls-5 {
        fill-rule: evenodd;
      }

      .cls-2 {
        fill: #fba89f;
      }

      .cls-3 {
        fill: #fff;
      }

      .cls-4 {
        fill: #ef7a6c;
      }
    </style>
  </defs>
  <g id="_Layer_" data-name="&amp;lt;Layer&amp;gt;">
    <g>
      <path class="cls-2" d="M157.08,46.38C172.31,31.33,209.81-.86,236.65,2.01c13.19,1.41,24.38,11.26,34.61,18.46,21.11,14.86,34.02,3.47,57.09,48.36,4.12,8,13.25,30.54,18.8,47.67,3.68,11.36-2.23,38.5,1.52,51.62,1.86,6.51,8.89,12.91,8.89,12.91l25.64,85.18s8.77,5.4,12.26,15.6c3.49,10.19,1.69,25.19,1.69,25.19l-324.56,7.83s-5.29-21.38,2.75-35.15c8.04-13.76,19.66-22.7,24.18-39,4.34-15.62,3-44.12,8.67-61.4,2.21-6.74,19.21-18.8,21.34-25.51,4.03-12.76-1.67-28.93,1.52-47.28,3.92-22.56,18.5-52.7,26.01-60.12Z"/>
      <path class="cls-3" d="M111.99,296.83l60.01-7.98,139.15-4.28,59.6,11.28s31.9,8.9,50.22,31.8c18.33,22.9,23.09,59.8,23.09,59.8l-36.45,15.92-31.01,100.24s-6.52,3.32-8.26,47.93c-1.73,44.62,1.33,130.53,1.33,130.53,0,0-61.96,10.13-126.82,10.33-64.87,.2-132.65-9.53-132.65-9.53,0,0,2.93-72.9,1.32-116.23-1.61-43.33-7.75-57.09-7.75-57.09l-67.06-114.33s7.01-37.6,20.17-64.49c7.82-15.99,55.1-33.9,55.1-33.9Z"/>
      <path class="cls-1" d="M158.82,145.85c7.96-7.04,14.24,3.62,20.16-8.28,4.65-9.34,8.48-41.07,16.71-48.95,16.24-15.56,48.19-21,62.48-6.92,6.79,6.69,10.78,40.3,26.46,52.08,14.45,10.85,40.88-.6,42.25,16.87,.43,5.52-2.81,16.2-7.27,21.28-6.11,6.96-14.06,7.53-14.06,7.53l-7.96,25.06-12.82,19.95s-.87,24.65,6.07,37.62c6.93,12.96,21.67,14.23,21.67,14.23,0,0,7.19-59.42,13.17-67.85,2.15-3.03,4.65-9.66,9.16-5.65,2.61,2.32,.67,16.44,.33,26.76-.27,8.02,.52,14.69,.52,14.69,0,0,3.24-10.46,6.79-24.09,3.11-11.92,6.29-26.67,9.89-33.71,7.74-15.1,14.26-2.58,14.26-2.58,0,0,6.63-13.13,11.1-14.57,7.75-2.49,6.46,7.96,6.46,7.96,0,0,8.15-.79,6.56,12.23-1.84,15.05-6.86,48.42-6.86,48.42,0,0,5,9.84,.44,23.17-2.8,8.18-8.78,18.03-13.37,29.59-4.07,10.23-7.23,21.51-3.57,38.63,2.67,12.51,13.7,35.61,23.22,52.16,7.7,13.39,14.48,21.86,14.48,21.86,0,0,10.31-7.7,19.96-11.93,9.64-4.23,18.61-4.98,18.61-4.98,0,0,6.67,22.57,15.6,45.94,8.1,21.19,18.45,42.11,20.21,64.66,4.46,57.16-21.98,74.32-31.68,72.5-9.52-1.79-26.53-10.86-41.27-24.93-11.43-10.9-20.21-23.69-31.28-45.54-10.2-20.13-16.78-47.42-24.9-75.03-6.28-21.37-14.33-43.71-20.22-58.15-5.65-13.86-14.35-36.4-17.99-46.32-5.38-14.68-2.46-32.91-2.46-32.91,0,0-27.52,29.66-66.8,30.39-34.38,.64-70.72-29.1-70.72-29.1l.19,23.72s-12.26,28.39-27.32,72.35c-15.06,43.96-32.94,103.49-32.94,103.49,0,0-12.79,34.04-33.09,56.68-21.82,24.34-52.68,32.23-62.26,20.08-4.69-5.95-15.56-38.14-14.45-56.06,1.63-26.38,11.33-49.55,19.61-72.81,8.25-23.17,15.08-46.48,15.08-46.48,0,0,11.63,1.41,21.17,5.93,9.53,4.52,16.96,12.15,16.96,12.15,0,0,10.81-12.25,20.94-30.75,9.06-16.54,17.45-38.95,19.13-47.99,3.51-18.9-.22-26.6-4.44-36.45-4.86-11.35-10.62-23.48-11.08-24.58-5.95-14.06-2.02-29.5-2.02-29.5l-6.36-55.56,7.85-2.9s-1.21-10.4,4.76-8.5c7.82,2.5,11.33,14.39,11.33,14.39,0,0,1.27-1.97,3.49-4.56,2.19-2.55,8.46,2.06,11.7,8.31,3,5.79,6.07,20.31,8.94,31.51,3.38,13.23,6.32,22.85,6.32,22.85,0,0,1.16-5.48,1.41-14.38,.23-8.01-1.68-19.08,.04-23.88,1.65-4.61,7.09,.87,9.06,3.33,4.32,5.41,7.07,31.14,9.63,49.01,1.16,8.14,3.89,17.54,3.89,17.54,0,0,16.92-2.16,23.76-14.33,6.84-12.17,3.6-34.37,3.6-34.37l-13.58-20.99-7.83-19.3s-13.59-3.15-20.34-13c-4.49-6.55-7.1-17.65,3.51-27.02Z"/>
      <path class="cls-4" d="M186.82,173.27c0-2.38,1.76-4.31,3.93-4.31s3.93,1.93,3.93,4.31-1.76,4.31-3.93,4.31-3.93-1.93-3.93-4.31Z"/>
      <path class="cls-4" d="M281.78,191.24c0-1.86,1.42-3.37,3.18-3.37s3.18,1.51,3.18,3.37-1.43,3.37-3.18,3.37-3.18-1.51-3.18-3.37Z"/>
      <path class="cls-4" d="M284.77,209.41c0-2.79,2.27-5.06,5.06-5.06s5.06,2.27,5.06,5.06-2.27,5.05-5.06,5.05-5.06-2.26-5.06-5.05Z"/>
      <path class="cls-4" d="M198.81,167.27c0-1.97,1.47-3.56,3.28-3.56s3.28,1.6,3.28,3.56-1.47,3.55-3.28,3.55-3.28-1.59-3.28-3.55Z"/>
      <path class="cls-4" d="M221.85,178.79c0-1.5,1.09-2.72,2.43-2.72s2.43,1.22,2.43,2.72-1.09,2.71-2.43,2.71-2.43-1.21-2.43-2.71Z"/>
      <path class="cls-4" d="M184.95,209.88c0-3.15,2.47-5.71,5.52-5.71s5.52,2.56,5.52,5.71-2.47,5.71-5.52,5.71-5.52-2.55-5.52-5.71Z"/>
      <path class="cls-4" d="M202.37,223.37c0-1.81,1.47-3.28,3.28-3.28s3.28,1.46,3.28,3.28-1.47,3.28-3.28,3.28-3.28-1.47-3.28-3.28Z"/>
      <path class="cls-4" d="M260.43,223.08c0-1.66,1.26-2.99,2.81-2.99s2.81,1.34,2.81,2.99-1.26,2.99-2.81,2.99-2.81-1.34-2.81-2.99Z"/>
      <path class="cls-4" d="M253.69,235.63c0-2.79,2.43-5.05,5.43-5.05s5.43,2.26,5.43,5.05-2.43,5.06-5.43,5.06-5.43-2.27-5.43-5.06Z"/>
      <path class="cls-4" d="M281.78,157.54c0-1.76,1.3-3.19,2.9-3.19s2.9,1.43,2.9,3.19-1.3,3.18-2.9,3.18-2.9-1.43-2.9-3.18Z"/>
      <path class="cls-4" d="M235.52,90.86c0-1.86,1.43-3.37,3.18-3.37s3.18,1.51,3.18,3.37-1.43,3.37-3.18,3.37-3.18-1.51-3.18-3.37Z"/>
      <path class="cls-4" d="M221.28,85.71c0-2.64,2.14-4.78,4.78-4.78s4.78,2.14,4.78,4.78-2.14,4.78-4.78,4.78-4.78-2.14-4.78-4.78Z"/>
      <path class="cls-4" d="M244.69,116.33c0-1.55,1.13-2.81,2.53-2.81s2.53,1.26,2.53,2.81-1.13,2.81-2.53,2.81-2.53-1.26-2.53-2.81Z"/>
      <path class="cls-4" d="M193.75,97.79c0-2.07,1.51-3.75,3.37-3.75s3.37,1.68,3.37,3.75-1.51,3.75-3.37,3.75-3.37-1.68-3.37-3.75Z"/>
      <path class="cls-4" d="M232.71,124.1c0-1.39,1.17-2.53,2.62-2.53s2.62,1.13,2.62,2.53-1.17,2.53-2.62,2.53-2.62-1.13-2.62-2.53Z"/>
      <path d="M450.92,572.36c-4.79,0-10.59-1.58-17.12-4.71-22.65-10.84-51.75-39.46-63.54-73.16-10.11-28.91-15.6-47.03-20.92-64.55-3.29-10.84-6.68-22.04-11.14-35.69-5.76-17.62-12.3-32.99-18.07-46.56-6.48-15.22-11.59-27.24-12.82-36.16-1.83-13.23,.78-25.75,3.53-39.01,1.73-8.34,3.53-16.97,4.39-26.43,1.26-13.75,5.31-45.97,15.8-48.19,2.82-.58,4.62,.35,5.64,1.24,3.68,3.22,3.14,10.45,2.16,23.57-.44,5.93-.95,12.66-1.13,20.22-.39,15.86-3.76,35.13-3.9,35.94-.28,1.62-1.84,2.69-3.44,2.41-1.62-.28-2.7-1.83-2.41-3.44,.03-.19,3.44-19.65,3.81-35.05,.19-7.71,.7-14.51,1.15-20.52,.57-7.65,1.29-17.17-.13-18.63-.02,.02-.19,0-.52,.08-3.54,.75-8.85,18.17-11.11,42.91-.89,9.8-2.72,18.59-4.49,27.1-2.65,12.74-5.15,24.78-3.46,36.99,1.12,8.14,6.1,19.83,12.4,34.65,5.82,13.67,12.41,29.17,18.25,47.03,4.48,13.71,7.89,24.95,11.18,35.81,5.3,17.47,10.77,35.52,20.84,64.31,11.25,32.17,38.95,59.45,60.5,69.76,7.65,3.66,14.27,4.97,18.16,3.59,5.59-1.99,11.5-8.99,15.79-18.73,10.64-24.16,9.12-57.2-4.07-88.38-15.05-35.58-20.83-56.83-25.92-75.57-3.86-14.19-7.19-26.45-13.88-41.69-13.91-31.7-54.88-43.64-55.29-43.76-1.58-.45-2.49-2.09-2.05-3.66,.44-1.58,2.08-2.5,3.66-2.05,1.79,.51,44.06,12.8,59.11,47.09,6.87,15.65,10.25,28.1,14.17,42.52,5.05,18.57,10.77,39.61,25.66,74.82,13.81,32.65,15.32,67.45,4.03,93.09-5.01,11.38-12.02,19.38-19.24,21.93-1.66,.59-3.53,.88-5.59,.88Z"/>
      <path d="M349.06,276.48c-.14,0-.29-.01-.44-.04-1.62-.24-2.74-1.75-2.5-3.37,1.61-10.89,3.78-18.85,5.87-26.55,2.51-9.23,4.88-17.94,6.36-31.38,.91-8.25,1.93-14.94,2.74-20.32,.92-6.08,1.8-11.84,1.36-13.55-.93-.39-1.55-.24-2.04-.03-2.66,1.11-5.59,6.17-7.85,13.52-3.3,10.73-5.16,19-6.96,27-2.1,9.31-4.08,18.09-8.08,30.23-.51,1.56-2.18,2.4-3.75,1.89-1.56-.51-2.4-2.19-1.89-3.75,3.91-11.87,5.86-20.52,7.93-29.68,1.83-8.1,3.72-16.48,7.08-27.43,2.02-6.57,5.61-14.9,11.24-17.26,2.41-1.01,4.98-.87,7.44,.41,4.05,2.11,3.27,7.21,1.4,19.54-.81,5.32-1.81,11.95-2.71,20.08-1.54,13.9-4.08,23.25-6.53,32.29-2.05,7.53-4.17,15.32-5.73,25.86-.22,1.48-1.49,2.54-2.93,2.54Z"/>
      <path d="M363.37,273.19c-.15,0-.29-.01-.44-.04-1.62-.24-2.74-1.75-2.5-3.37,1.65-11.17,4.75-20.77,7.76-30.05,3.37-10.44,6.86-21.23,8.31-34.38,.91-8.25,1.93-14.94,2.74-20.32,.92-6.08,1.8-11.85,1.37-13.55-.93-.38-1.55-.24-2.04-.03-2.66,1.11-5.59,6.17-7.85,13.52-1.81,5.89-3.36,11.6-4.88,17.97-.38,1.59-1.98,2.58-3.58,2.2-1.6-.38-2.58-1.98-2.2-3.58,1.55-6.49,3.14-12.32,4.98-18.34,2.02-6.57,5.61-14.9,11.24-17.26,2.41-1.01,4.98-.87,7.44,.41,4.05,2.11,3.27,7.21,1.4,19.54-.81,5.32-1.81,11.95-2.71,20.08-1.52,13.75-5.1,24.83-8.56,35.55-3.06,9.47-5.95,18.42-7.53,29.09-.22,1.48-1.49,2.54-2.93,2.54Z"/>
      <path d="M374.29,273.03c-.25,0-.5-.03-.75-.1-1.59-.41-2.54-2.04-2.13-3.62,1.22-4.69,2.53-9.12,3.86-13.59,3.52-11.85,7.16-24.11,9.17-42.27,.56-5.11,1.19-9.66,1.74-13.68,1.22-8.83,2.27-16.46,.7-18.29-.1-.12-.4-.46-1.67-.48-1.64-.02-2.95-1.37-2.93-3.01,.02-1.64,1.46-2.83,3.01-2.93,2.62,.04,4.67,.89,6.09,2.55,3.32,3.86,2.38,10.65,.69,22.97-.55,3.97-1.17,8.47-1.73,13.52-2.07,18.69-5.78,31.21-9.38,43.31-1.31,4.41-2.6,8.77-3.81,13.39-.35,1.34-1.55,2.23-2.87,2.23Z"/>
      <path d="M465.61,493.12c-1.29,0-2.48-.85-2.85-2.15-3.82-13.3-15.66-27.83-29.37-44.65-8.19-10.05-17.48-21.45-26.31-34.14-26.94-38.7-32.15-52.77-36.74-65.18-.67-1.81-1.33-3.59-2.05-5.42-5.92-15.13-6.45-35.83-1.23-48.14,2.16-5.09,4.46-9.89,6.69-14.55,2.68-5.59,5.2-10.87,6.71-15.16,4.49-12.78,2.66-24.6,1.21-26.38-1.04-1.27-.85-3.14,.42-4.18,1.27-1.03,3.14-.84,4.18,.42,3.66,4.48,4.35,19.16-.2,32.11-1.62,4.59-4.21,10.01-6.96,15.75-2.2,4.59-4.47,9.33-6.58,14.3-4.61,10.86-4.04,30.04,1.29,43.65,.73,1.87,1.4,3.68,2.08,5.52,4.47,12.09,9.54,25.78,36.05,63.85,8.7,12.5,17.91,23.81,26.04,33.78,14.12,17.33,26.31,32.29,30.47,46.76,.45,1.58-.46,3.22-2.03,3.68-.27,.08-.55,.12-.82,.12Z"/>
      <path d="M30.82,573.8c-2.94,0-5.64-.48-8.04-1.44-6.24-2.5-11.63-8.72-15.59-18-10.35-24.26-9.44-64.11,2.1-92.71,12.97-32.13,20.19-57.07,26.56-79.06,4.65-16.08,9.05-31.27,14.96-46.57,11.03-28.54,57.45-42.13,59.42-42.7,1.58-.44,3.22,.45,3.67,2.04,.45,1.58-.46,3.22-2.04,3.67-.46,.13-45.56,13.35-55.52,39.13-5.82,15.06-10.18,30.12-14.8,46.08-6.41,22.14-13.67,47.22-26.75,79.64-12.55,31.1-10.47,68.63-2.15,88.16,3.32,7.79,7.59,12.91,12.33,14.81,5.02,2.01,12.45,.99,20.93-2.87,21.06-9.58,48.46-36.64,60.07-69.83,10.13-28.98,15.61-46.95,20.91-64.32,3.26-10.69,6.63-21.75,11.06-35.32,5.67-17.37,12.2-33.22,17.96-47.21,6.42-15.59,11.96-29.06,13.12-37.42,1.68-12.17-.57-22.84-3.17-35.19-1.71-8.12-3.48-16.52-4.38-26.37-2.25-24.74-7.56-42.16-11.11-42.91-.42-.09-.6-.05-.59-.05-1.35,1.33-.63,10.9-.06,18.59,.45,6.01,.96,12.82,1.15,20.53,.38,15.4,3.78,34.85,3.81,35.05,.29,1.62-.79,3.16-2.41,3.44-1.6,.29-3.15-.79-3.44-2.41-.14-.81-3.51-20.08-3.9-35.94-.18-7.56-.69-14.29-1.13-20.23-.98-13.11-1.52-20.34,2.16-23.56,1.02-.89,2.83-1.82,5.64-1.24,10.5,2.22,14.55,34.44,15.8,48.19,.87,9.5,2.6,17.73,4.27,25.68,2.6,12.36,5.06,24.03,3.24,37.23-1.26,9.11-6.67,22.24-13.51,38.87-5.72,13.89-12.2,29.64-17.81,46.79-4.41,13.51-7.77,24.54-11.02,35.2-5.32,17.43-10.81,35.46-20.98,64.55-12.16,34.76-41.01,63.17-63.22,73.27-6.45,2.93-12.39,4.41-17.56,4.41Z"/>
      <path d="M133.57,278.17c-1.45,0-2.72-1.06-2.93-2.54-1.56-10.54-3.68-18.33-5.73-25.86-2.46-9.04-5-18.38-6.54-32.28-.9-8.12-1.9-14.75-2.71-20.07-1.87-12.33-2.64-17.44,1.4-19.55,2.45-1.28,5.03-1.42,7.44-.41,5.63,2.36,9.22,10.69,11.24,17.26,3.36,10.95,5.25,19.33,7.08,27.43,2.06,9.16,4.02,17.82,7.93,29.69,.51,1.56-.33,3.24-1.89,3.75-1.56,.51-3.24-.33-3.75-1.89-4-12.14-5.98-20.93-8.08-30.24-1.8-7.99-3.67-16.26-6.96-26.99-2.26-7.36-5.19-12.41-7.85-13.52-.5-.21-1.12-.36-2.04,.03-.43,1.71,.44,7.47,1.36,13.56,.81,5.38,1.83,12.07,2.74,20.31,1.49,13.44,3.86,22.15,6.36,31.38,2.09,7.7,4.26,15.66,5.87,26.55,.24,1.62-.88,3.13-2.5,3.37-.15,.02-.29,.04-.44,.04Z"/>
      <path d="M119.26,274.87c-1.45,0-2.72-1.06-2.93-2.54-1.58-10.67-4.47-19.62-7.53-29.09-3.46-10.72-7.04-21.8-8.57-35.55-.9-8.12-1.9-14.75-2.71-20.07-1.87-12.33-2.64-17.44,1.4-19.55,2.46-1.28,5.03-1.42,7.44-.41,5.63,2.36,9.22,10.69,11.24,17.26,1.83,5.98,3.42,11.81,4.98,18.33,.38,1.6-.6,3.2-2.2,3.58-1.59,.38-3.2-.6-3.58-2.2-1.55-6.49-3.06-12.03-4.88-17.97-2.26-7.36-5.19-12.41-7.85-13.52-.49-.21-1.12-.36-2.04,.03-.43,1.7,.44,7.47,1.36,13.56,.81,5.38,1.83,12.07,2.74,20.31,1.46,13.15,4.94,23.94,8.31,34.38,3,9.28,6.1,18.88,7.76,30.04,.24,1.62-.88,3.14-2.5,3.37-.15,.02-.29,.04-.44,.04Z"/>
      <path d="M108.33,274.72c-1.32,0-2.53-.89-2.87-2.23-1.2-4.62-2.5-8.98-3.8-13.39-3.59-12.11-7.31-24.63-9.37-43.31-.56-5.05-1.18-9.56-1.73-13.53-1.7-12.32-2.63-19.1,.68-22.96,1.42-1.66,3.47-2.51,6.09-2.55,1.81,.04,2.99,1.29,3.01,2.93,.02,1.64-1.29,2.99-2.93,3.01-1.27,.02-1.57,.37-1.67,.48-1.57,1.83-.52,9.45,.7,18.28,.55,4.01,1.18,8.58,1.75,13.69,2.01,18.16,5.65,30.42,9.16,42.27,1.33,4.47,2.64,8.9,3.86,13.59,.41,1.58-.54,3.21-2.13,3.62-.25,.07-.5,.1-.75,.1Z"/>
      <path d="M74.64,409.52c-.82,0-1.63-.34-2.22-1-11.14-12.53-34.81-16.46-35.04-16.5-1.62-.26-2.72-1.79-2.46-3.41,.26-1.62,1.79-2.72,3.4-2.46,1.06,.17,26.01,4.33,38.54,18.42,1.09,1.23,.98,3.1-.25,4.19-.56,.5-1.27,.75-1.97,.75Z"/>
      <path d="M406.97,406.21c-.7,0-1.41-.25-1.98-.75-1.23-1.09-1.33-2.97-.25-4.19,12.57-14.13,37.62-17.49,38.68-17.62,1.58-.23,3.11,.94,3.32,2.57,.21,1.62-.94,3.11-2.57,3.32-.24,.03-23.92,3.23-34.99,15.68-.59,.66-1.4,1-2.22,1Z"/>
      <path d="M311.9,279.35c-.28,0-.57-.04-.85-.12-27.81-8.35-28.02-24.12-28.44-55.55-.02-1.64,1.29-2.99,2.93-3.01,1.71,.02,2.99,1.29,3.01,2.93,.42,31.18,.57,42.85,24.21,49.94,1.57,.47,2.46,2.13,1.99,3.7-.39,1.29-1.57,2.12-2.84,2.12Z"/>
      <path d="M171.26,278.64c-1.28,0-2.46-.83-2.84-2.12-.47-1.57,.42-3.23,1.99-3.7,23.41-7.02,25.16-14.45,23.01-45.98-.11-1.64,1.12-3.05,2.76-3.16,1.67-.08,3.05,1.12,3.16,2.76,2.21,32.52,.59,43.73-27.23,52.08-.28,.08-.57,.12-.85,.12Z"/>
      <path d="M109.34,686.91s-.1,0-.14,0c-1.64-.08-2.91-1.47-2.83-3.11,3-63.27,3.49-107.6,1.5-135.49-.85-11.88-3.06-25.53-6.58-40.56-.38-1.6,.62-3.2,2.22-3.57,1.61-.38,3.2,.62,3.57,2.21,3.59,15.34,5.85,29.3,6.72,41.5,2.01,28.12,1.52,72.67-1.49,136.19-.08,1.59-1.39,2.83-2.97,2.83Z"/>
      <path d="M370.72,686c-1.58,0-2.89-1.24-2.97-2.83l-.19-3.94c-2.66-56.1-4.77-100.41-2.6-130.81,1.33-18.59,4.69-33.68,8.13-47.22,.4-1.59,2.02-2.57,3.61-2.15,1.59,.4,2.55,2.02,2.15,3.61-3.37,13.27-6.66,28.05-7.96,46.18-2.15,30.04-.05,74.2,2.61,130.11l.19,3.94c.08,1.64-1.19,3.03-2.83,3.11-.05,0-.1,0-.14,0Z"/>
      <path d="M243.99,319.87c-30.95,0-59.31-15.75-74.03-31.79-1.11-1.21-1.03-3.09,.18-4.19,1.2-1.12,3.08-1.03,4.2,.18,14.26,15.53,42.21,30.93,72.31,29.82,24.06-.75,45.59-12.05,62.26-32.67,1.03-1.27,2.9-1.46,4.18-.44,1.28,1.04,1.47,2.91,.44,4.18-17.79,22-40.86,34.06-66.7,34.87-.95,.03-1.9,.04-2.84,.04Z"/>
      <path d="M241.57,250.73h-.05c-.6-.01-15.07-.4-35.8-14.12-14.31-9.46-19.53-19.86-22.66-26.08-4.05-8.06-9.09-18.93-12.15-31.52-.39-1.6,.59-3.2,2.18-3.59,1.6-.4,3.2,.59,3.59,2.18,2.92,12,7.78,22.48,11.69,30.26,3.04,6.06,7.64,15.2,20.62,23.79,19.15,12.67,32.5,13.13,32.64,13.13,1.64,.04,2.94,1.39,2.9,3.03-.03,1.62-1.35,2.91-2.96,2.91Z"/>
      <path d="M241.99,250.72c-1.63,0-2.96-1.32-2.97-2.95-.02-1.63,1.29-2.97,2.93-3,.27,0,11.81-.51,30.31-13.94,12.95-9.39,18.69-20.08,21.78-25.83,6.86-12.76,9.27-32.18,9.3-32.37,.2-1.63,1.69-2.8,3.31-2.59,1.63,.2,2.79,1.68,2.59,3.3-.1,.84-2.57,20.71-9.96,34.47-3.08,5.73-9.48,17.64-23.53,27.83-20.38,14.79-33.2,15.07-33.73,15.08h-.03Z"/>
      <path d="M239.84,184.18c-.7,0-1.4-.25-1.97-.75-1.23-1.09-1.34-2.97-.25-4.2,3.24-3.65,3.37-5.09,3.34-5.44-.06-.58-1.24-1.48-2.39-2.35-2.15-1.62-5.09-3.85-6.25-7.93-2.44-8.58,2.7-21.77,4.69-25.72,.74-1.47,2.52-2.05,3.99-1.31,1.46,.74,2.05,2.52,1.31,3.99-2.31,4.58-5.94,15.57-4.28,21.41,.62,2.17,2.32,3.46,4.12,4.82,2.06,1.56,4.4,3.33,4.72,6.49,.28,2.83-1.2,5.91-4.8,9.97-.59,.66-1.41,1-2.22,1Z"/>
      <path d="M197.09,118.73c-1.48,0-2.76-1.1-2.94-2.61-.2-1.63,.96-3.11,2.59-3.31,4.58-.56,17.94-3.54,19.26-9.68,.34-1.6,1.92-2.63,3.53-2.28,1.6,.35,2.62,1.93,2.28,3.53-2.45,11.36-22.12,14.05-24.35,14.32-.12,.01-.24,.02-.36,.02Z"/>
      <path class="cls-5" d="M196.11,226.98s21.81,18.87,42.66,20.69c15.81,1.37,42.79-19.19,42.79-19.19,0,0-28.03,31.36-48.99,33.41-18.19,1.79-36.38-16.76-36.38-16.76l-.07-18.16Z"/>
      <path d="M353.91,181.92c-.83,0-1.64-.34-2.23-1.01-4.51-5.12-8.77-12.53-6.17-28.63,4.86-30.14-9.55-61.11-14.97-72.77-15.93-34.28-34.39-49.74-57.64-48.94-1.8,.05-3.01-1.23-3.07-2.87-.06-1.64,1.23-3.01,2.87-3.07,26.12-.87,46.17,15.66,63.07,52.04,5.79,12.44,20.75,44.62,15.6,76.55-2.07,12.87,.41,18.8,4.76,23.76,1.08,1.23,.96,3.11-.27,4.19-.56,.5-1.26,.74-1.96,.74Z"/>
      <path d="M397.49,308.62c-.13,0-.27,0-.4-.03-1.62-.22-2.76-1.72-2.54-3.34,3.05-22.5-3.45-28.79-10.99-36.07l-1.87-1.82c-1.17-1.16-1.17-3.03-.02-4.2,1.16-1.16,3.04-1.17,4.2-.02l1.82,1.77c7.96,7.7,16.19,15.67,12.74,41.14-.2,1.49-1.48,2.58-2.94,2.58Z"/>
      <path d="M306.08,182.71c-1.32,0-2.53-.89-2.87-2.23-.41-1.59,.55-3.21,2.14-3.61,10.08-2.59,15.79-8.14,17.95-17.45,1.52-6.58,0-12.63-3.95-15.8-3.8-3.03-9.4-3.02-15.76,.05-1.48,.72-3.25,.09-3.97-1.38-.71-1.48-.09-3.25,1.38-3.97,8.41-4.06,16.45-3.82,22.05,.66,5.76,4.6,8.07,12.95,6.03,21.78-2.68,11.56-9.96,18.71-22.26,21.87-.25,.06-.5,.1-.74,.1Z"/>
      <path d="M310.09,163.57c-.48,0-.98-.12-1.43-.37-1.43-.79-1.96-2.59-1.18-4.02,.09-.16,2.19-3.96,5.79-6.65,1.31-.98,3.18-.72,4.16,.6,.98,1.31,.72,3.17-.6,4.16-2.54,1.9-4.13,4.73-4.14,4.76-.54,.98-1.56,1.53-2.6,1.53Z"/>
      <path class="cls-5" d="M200.89,146.3c-.1-4.26,2.54-7.79,5.9-7.87,3.36-.08,6.17,3.31,6.27,7.58,.1,4.27-2.54,7.79-5.9,7.88-3.36,.08-6.17-3.31-6.27-7.58Z"/>
      <path class="cls-5" d="M262.76,144.81c-.1-4.27,2.54-7.79,5.9-7.87,3.36-.08,6.17,3.31,6.27,7.58,.1,4.27-2.54,7.79-5.9,7.87-3.36,.08-6.17-3.31-6.27-7.58Z"/>
      <path d="M174.05,188.36c-.2,0-.4-.02-.6-.06-12.44-2.56-20.05-9.36-23.28-20.78-2.47-8.72-.56-17.16,4.97-22.04,5.39-4.74,13.4-5.37,22-1.71,1.51,.64,2.21,2.39,1.57,3.9-.64,1.51-2.38,2.21-3.9,1.57-6.5-2.76-12.09-2.51-15.75,.71-3.8,3.35-5.02,9.47-3.18,15.97,2.6,9.21,8.56,14.48,18.76,16.58,1.61,.33,2.64,1.9,2.31,3.51-.29,1.4-1.53,2.37-2.91,2.37Z"/>
      <path d="M169.12,169.44c-1,0-1.98-.5-2.54-1.42-.01-.02-1.73-2.77-4.36-4.55-1.36-.92-1.72-2.77-.8-4.12,.92-1.36,2.77-1.71,4.12-.8,3.73,2.52,6.01,6.21,6.1,6.37,.85,1.4,.41,3.23-.99,4.08-.48,.29-1.02,.44-1.55,.44Z"/>
      <path d="M110.9,177.21c-.76,0-1.52-.29-2.1-.87-1.16-1.16-1.16-3.04,0-4.2,2.26-2.26,4.55-4.09,6.76-5.86,7.37-5.88,13.18-10.52,11.72-27.76-2.44-28.68,4.09-57.86,18.41-82.17C163.13,26.73,198.97,2.59,229.07,.2c15.9-1.26,28.82,3.53,37.36,13.87,1.04,1.27,.87,3.14-.4,4.18-1.27,1.05-3.14,.87-4.18-.4-9.17-11.09-22.63-12.5-32.31-11.73-28.34,2.25-62.18,25.15-78.73,53.26-13.69,23.26-19.94,51.19-17.61,78.65,1.74,20.4-5.87,26.47-13.93,32.9-2.09,1.67-4.24,3.39-6.27,5.41-.58,.58-1.34,.87-2.1,.87Z"/>
      <path d="M71.5,316.53c-1.38,0-2.62-.96-2.91-2.37-4.99-24.03,5.86-38.45,15.42-51.17,3.43-4.57,6.68-8.88,9.11-13.45,.77-1.45,2.57-2,4.02-1.22,1.45,.77,2,2.57,1.23,4.02-2.65,4.98-6.19,9.68-9.61,14.22-9.24,12.29-18.8,24.99-14.36,46.4,.33,1.61-.7,3.18-2.3,3.51-.21,.04-.41,.06-.61,.06Z"/>
      <path d="M278.87,118.93c-.12,0-.24,0-.36-.02-2.24-.27-21.91-2.97-24.35-14.32-.35-1.6,.67-3.18,2.28-3.53,1.61-.36,3.19,.67,3.53,2.28,1.32,6.14,14.69,9.12,19.26,9.68,1.63,.2,2.79,1.68,2.59,3.31-.18,1.51-1.46,2.61-2.94,2.61Z"/>
      <g>
        <path class="cls-3" d="M217.18,208.3c-.95-7.1,12.28-14.9,26.04-13.91,12.48,.9,21.55,8.58,17.86,14.28-3.69,5.69-11.81-2.78-22.47-1.18-11.13,1.66-20.47,7.94-21.43,.81Z"/>
        <path d="M220.91,214.61c-1.44,0-2.72-.29-3.86-1.03-1.56-1.01-2.51-2.65-2.81-4.88h0c-.4-2.95,.76-5.96,3.34-8.71,5.41-5.75,16.05-9.26,25.86-8.56,9.43,.68,17.66,4.93,20.47,10.57,1.41,2.83,1.29,5.77-.33,8.29-3.22,4.98-8.39,3.33-12.94,1.87-3.45-1.1-7.36-2.35-11.58-1.72-3.36,.5-6.63,1.48-9.52,2.34-3.31,.99-6.19,1.84-8.63,1.84Zm-.78-6.71c.08,.56,.2,.73,.2,.73,.86,.43,4.86-.77,7.52-1.56,3.08-.91,6.56-1.95,10.33-2.52,5.6-.83,10.41,.7,14.27,1.94,4.72,1.51,5.55,1.47,6.14,.56,.32-.49,.6-1.2,0-2.41-1.55-3.1-7.53-6.71-15.58-7.29-9.1-.66-17.5,2.87-21.1,6.7-.75,.8-1.98,2.36-1.78,3.84h0Z"/>
      </g>
      <path d="M296.9,134.3c-11.73,0-22.1-7.93-28.51-22.52-1.85-4.2-3.58-8.66-5.26-12.97-5.21-13.39-10.59-27.23-18.07-29.08-3.44-.86-7.71,.9-12.67,5.21-1.24,1.08-3.12,.94-4.19-.29-1.08-1.24-.94-3.12,.29-4.19,6.6-5.73,12.49-7.85,18-6.49,10.47,2.59,16.16,17.21,22.18,32.7,1.67,4.29,3.36,8.63,5.16,12.73,7.15,16.24,19.3,22.56,32.49,16.9,1.51-.65,3.25,.05,3.9,1.56,.64,1.51-.05,3.25-1.56,3.9-4,1.71-7.95,2.55-11.75,2.55Z"/>
      <path d="M171.82,137.3c-1.42,0-2.67-1.01-2.92-2.46-.28-1.62,.8-3.16,2.41-3.44,6.22-1.09,9.14-10.38,12.52-21.13,4.88-15.51,10.96-34.81,31.48-36.25,1.59-.12,3.06,1.12,3.17,2.76,.12,1.64-1.12,3.05-2.76,3.17-16.49,1.16-21.44,16.89-26.23,32.11-3.8,12.07-7.39,23.48-17.16,25.2-.17,.03-.35,.04-.52,.04Z"/>
      <path d="M233.46,57.48c-.38,0-.76-.07-1.14-.23-1.52-.63-2.23-2.37-1.61-3.88,4.88-11.77,14.41-19.61,21.69-23.03,1.5-.7,3.26-.06,3.95,1.43,.7,1.49,.06,3.25-1.43,3.95-6.28,2.95-14.5,9.72-18.73,19.92-.48,1.14-1.58,1.83-2.75,1.83Z"/>
      <path d="M16.86,494.16c-.27,0-.55-.04-.82-.12-1.58-.46-2.49-2.1-2.03-3.68,4.16-14.47,16.35-29.43,30.47-46.75,8.13-9.97,17.34-21.27,26.04-33.78,26.52-38.09,31.58-51.78,36.06-63.87,.68-1.84,1.35-3.65,2.08-5.52,5.33-13.61,5.9-32.78,1.29-43.65-2.1-4.96-4.38-9.71-6.57-14.29-2.75-5.74-5.35-11.17-6.96-15.75-4.61-13.12-3.99-27.91-.34-32.37,1.04-1.27,2.91-1.45,4.18-.42,1.27,1.04,1.46,2.91,.42,4.18-1.44,1.76-3.22,13.67,1.35,26.64,1.51,4.28,4.04,9.57,6.71,15.16,2.23,4.65,4.53,9.45,6.69,14.54,5.22,12.32,4.69,33.02-1.23,48.14-.72,1.83-1.37,3.61-2.04,5.41-4.59,12.42-9.8,26.5-36.75,65.2-8.83,12.69-18.12,24.08-26.32,34.14-13.71,16.82-25.54,31.34-29.37,44.64-.37,1.3-1.56,2.15-2.85,2.15Z"/>
      <path d="M288.12,171.44c-1.49,0-3.88-.69-5.53-4.61-2.03-4.83-.37-13.44-.17-14.41,.33-1.61,1.91-2.64,3.5-2.32,1.61,.33,2.65,1.89,2.32,3.5-.6,2.96-1.18,8.54-.17,10.92,.02,.04,.04,.09,.06,.13,.55-1.28,1.1-3.63,.84-6.76-.13-1.63,1.08-3.07,2.72-3.2,1.63-.15,3.07,1.09,3.2,2.72,.58,7.11-1.81,12.96-5.69,13.91-.24,.06-.61,.12-1.07,.12Zm.62-5.75h0Z"/>
    </g>
  </g>
</svg>